<?xml version="1.0" encoding="utf-8"?>
<!-- Generator: Adobe Illustrator 16.0.0, SVG Export Plug-In . SVG Version: 6.00 Build 0)  -->
<!DOCTYPE svg PUBLIC "-//W3C//DTD SVG 1.1//EN" "http://www.w3.org/Graphics/SVG/1.1/DTD/svg11.dtd">
<svg version="1.1" id="Layer_1" xmlns="http://www.w3.org/2000/svg" xmlns:xlink="http://www.w3.org/1999/xlink" x="0px" y="0px"
	 width="133.712px" height="37.878px" viewBox="0 0 133.712 37.878" enable-background="new 0 0 133.712 37.878"
	 xml:space="preserve">
<g>
	<path fill="#001D36" d="M4.942,20.028v5.498h-0.69V13.257h0.69v6.081h5.137v-6.081h0.69v12.269h-0.69v-5.498H4.942z"/>
	<path fill="#001D36" d="M13.914,13.257v12.269h-0.69V13.257H13.914z"/>
	<path fill="#001D36" d="M26.634,24c-1.166,1.114-2.559,1.671-4.179,1.671c-1.738,0-3.219-0.612-4.443-1.836
		c-1.225-1.225-1.836-2.706-1.836-4.443c0-1.733,0.612-3.213,1.836-4.439c1.224-1.228,2.705-1.841,4.443-1.841
		c1.62,0,3.028,0.545,4.225,1.634l-0.521,0.475c-1.053-0.935-2.288-1.402-3.703-1.402c-1.539,0-2.853,0.544-3.941,1.633
		c-1.088,1.089-1.633,2.402-1.633,3.941c0,1.544,0.544,2.859,1.633,3.948c1.089,1.089,2.403,1.634,3.941,1.634
		c1.319,0,2.481-0.406,3.489-1.22v-3.741h0.69V24z"/>
	<path fill="#001D36" d="M29.479,20.028v5.498h-0.69V13.257h0.69v6.081h5.137v-6.081h0.69v12.269h-0.69v-5.498H29.479z"/>
	<path fill="#001D36" d="M64.246,13.195h3.993v2.848l2.329-2.848h4.825l-4.345,5.639l4.566,6.692h-4.751l-2.625-3.809v3.809h-3.993
		V13.195z"/>
	<path fill="#001D36" d="M75.984,13.195h4.179v12.331h-4.179V13.195z"/>
	<path fill="#001D36" d="M83.084,16.43h-2.273v-3.235h8.614v3.235H87.15v9.096h-4.066V16.43z"/>
	<path fill="#001D36" d="M89.794,19.37c0-0.985,0.173-1.876,0.518-2.671s0.813-1.477,1.405-2.043s1.281-1.001,2.07-1.304
		c0.789-0.302,1.627-0.453,2.514-0.453c0.703,0,1.328,0.068,1.877,0.204s1.02,0.289,1.414,0.462
		c0.456,0.197,0.851,0.413,1.184,0.647l-1.941,3.42c-0.197-0.148-0.413-0.29-0.646-0.426c-0.21-0.099-0.459-0.193-0.749-0.286
		s-0.62-0.139-0.989-0.139c-0.382,0-0.733,0.067-1.054,0.203c-0.321,0.136-0.601,0.32-0.841,0.555s-0.429,0.509-0.564,0.822
		c-0.135,0.314-0.203,0.65-0.203,1.008s0.07,0.693,0.213,1.008c0.141,0.314,0.336,0.589,0.582,0.822
		c0.246,0.234,0.536,0.419,0.869,0.555c0.332,0.136,0.695,0.203,1.09,0.203s0.746-0.049,1.055-0.147
		c0.308-0.099,0.566-0.209,0.776-0.333c0.246-0.136,0.462-0.296,0.647-0.48l1.94,3.42c-0.333,0.271-0.728,0.512-1.183,0.721
		c-0.395,0.173-0.869,0.333-1.424,0.481c-0.555,0.147-1.189,0.222-1.904,0.222c-0.961,0-1.849-0.157-2.662-0.472
		s-1.516-0.755-2.107-1.321c-0.592-0.567-1.054-1.248-1.387-2.043C89.961,21.209,89.794,20.332,89.794,19.37z"/>
	<path fill="#001D36" d="M101.422,13.195h3.938v4.197h2.2v-4.197h3.955v12.331h-3.955v-4.566h-2.2v4.566h-3.938V13.195z"/>
	<path fill="#001D36" d="M112.811,13.195h7.266v3.235h-3.328v1.368h3.272v3.069h-3.272v1.423h3.457v3.235h-7.395V13.195z"/>
	<path fill="#001D36" d="M121.314,13.195h3.235l3.402,4.751v-4.751h3.863v12.331h-3.254l-3.384-4.732v4.732h-3.863V13.195z"/>
</g>
<g>
	<path fill-rule="evenodd" clip-rule="evenodd" fill="#F47920" d="M45.709,33.537c-0.579-3.67,1.969-18.728,0.716-19.493
		c-0.906-0.553-1.186-0.669-1.782-1.547c-0.45-0.664-0.71-1.294-0.842-1.926c-0.451-2.157,0.424-6.585,3.138-7.597
		c0.177-0.062,0.42-0.065,0.602,0.009c2.695,1.028,3.564,5.437,3.114,7.588c-0.131,0.632-0.392,1.262-0.842,1.926
		c-0.595,0.878-0.875,0.994-1.781,1.547c-1.253,0.766,1.302,15.824,0.716,19.493C48.318,36.226,46.239,36.9,45.709,33.537z"/>
	<path fill-rule="evenodd" clip-rule="evenodd" fill="#F47920" d="M40.577,28.127c-0.3-1.902,1.021-9.711,0.372-10.107
		c-0.47-0.287-0.615-0.348-0.924-0.803c-0.233-0.344-0.368-0.671-0.437-0.998c-0.234-1.119,0.22-3.415,1.627-3.939
		c0.092-0.033,0.218-0.034,0.312,0.004c1.397,0.533,1.849,2.819,1.615,3.936c-0.068,0.327-0.204,0.654-0.437,0.998
		c-0.309,0.455-0.454,0.516-0.924,0.803c-0.649,0.396,0.675,8.205,0.372,10.107C41.931,29.522,40.853,29.872,40.577,28.127z"/>
	<path fill-rule="evenodd" clip-rule="evenodd" fill="#F47920" d="M54.373,3.227c0.261,0.673,0.296,0.678,0.296,1.404v6.956h0.393
		V4.611c0-0.682-0.011-0.742,0.204-1.384c0.261,0.673,0.244,0.678,0.244,1.404l0.105,6.956v0.884c0,0.515-0.477,0.824-0.882,1.072
		c-1.244,0.76,1.282,16.243,0.733,19.72c-0.476,3.021-2.609,3.013-3.084,0c-0.548-3.477,1.978-18.96,0.734-19.72
		c-0.405-0.248-0.882-0.558-0.882-1.072v-0.884l0.105-6.977c0-0.682-0.011-0.742,0.204-1.384c0.261,0.673,0.244,0.678,0.244,1.404
		v6.956h0.393V4.611c0-0.682,0.041-0.742,0.257-1.384c0.261,0.673,0.296,0.678,0.296,1.404v6.956h0.383V4.611
		C54.116,3.929,54.157,3.869,54.373,3.227z"/>
	<path fill-rule="evenodd" clip-rule="evenodd" fill="#F47920" d="M59.42,3.368c0.326-0.014,0.495,0.126,0.569,0.433
		c0.256,1.069,0.096,3.258,0.107,4.447c0.038,4.065,0.017,9.957,0.066,13.755c-0.118,0.236-0.244,0.851-0.24,1.552
		c0.012,2.56,1.62,11.434-0.402,11.864c-0.275,0.059-0.505-0.137-0.694-0.383c-1.191-1.553-0.293-9.21-0.332-11.412
		c-0.056-0.634-0.097-1.084-0.398-1.643c-0.231-1.98-0.254-3.971-0.354-5.962c-0.091-1.81-0.1-3.478-0.09-5.21
		c0.012-2.205,0.173-3.67,0.667-5.863c0.094-0.416,0.266-1.083,0.649-1.4C59.094,3.441,59.243,3.375,59.42,3.368z"/>
</g>
</svg>
