<?xml version="1.0" encoding="utf-8"?>
<!-- Generator: Adobe Illustrator 16.0.0, SVG Export Plug-In . SVG Version: 6.00 Build 0)  -->
<!DOCTYPE svg PUBLIC "-//W3C//DTD SVG 1.1//EN" "http://www.w3.org/Graphics/SVG/1.1/DTD/svg11.dtd">
<svg version="1.1" id="Layer_1" xmlns="http://www.w3.org/2000/svg" xmlns:xlink="http://www.w3.org/1999/xlink" x="0px" y="0px"
	 width="116.288px" height="20.833px" viewBox="0 0 116.288 20.833" enable-background="new 0 0 116.288 20.833"
	 xml:space="preserve">
<g>
	<path fill="#001D36" d="M5.724,8.633c0.049,0.362,0.1,0.743,0.154,1.145c0.053,0.401,0.1,0.788,0.139,1.159
		c0.039,0.372,0.063,0.71,0.073,1.013c0.01,0.303,0,0.536-0.029,0.698s-0.088,0.23-0.176,0.205
		c-0.088-0.023-0.215-0.178-0.382-0.463c0-0.674-0.032-1.313-0.095-1.915C5.344,9.873,5.264,9.269,5.166,8.662
		c-0.225,0-0.445-0.037-0.661-0.11S4.095,8.396,3.918,8.303S3.603,8.111,3.5,8.009C3.397,7.906,3.346,7.82,3.346,7.752
		c0.068,0.02,0.176,0.044,0.323,0.073C3.815,7.854,3.97,7.882,4.131,7.906C4.292,7.931,4.454,7.95,4.616,7.965
		c0.161,0.015,0.291,0.022,0.389,0.022C4.946,7.547,4.889,7.15,4.835,6.798C4.782,6.446,4.728,6.104,4.674,5.771
		C4.62,5.438,4.566,5.099,4.513,4.751S4.408,4.015,4.359,3.584C4.055,3.457,3.75,3.34,3.441,3.231
		C3.133,3.124,2.837,3.002,2.554,2.865C2.534,2.807,2.52,2.765,2.509,2.74C2.5,2.716,2.497,2.694,2.502,2.674
		c0.005-0.02,0.02-0.041,0.044-0.065s0.066-0.062,0.125-0.11c0.078-0.02,0.262,0.013,0.55,0.096s0.631,0.2,1.027,0.352
		C4.645,3.098,5.07,3.278,5.525,3.488C5.98,3.699,6.421,3.914,6.846,4.135c0.426,0.22,0.807,0.44,1.145,0.66
		c0.337,0.22,0.584,0.423,0.741,0.609c0.146,0.117,0.247,0.254,0.301,0.41c0.054,0.157,0.068,0.318,0.044,0.484
		C9.053,6.466,8.991,6.632,8.894,6.798c-0.098,0.167-0.22,0.323-0.367,0.47C8.38,7.405,8.206,7.549,8.006,7.701
		C7.805,7.853,7.587,7.994,7.353,8.126C7.118,8.259,6.863,8.371,6.589,8.464S6.027,8.613,5.724,8.633z M5.533,7.958
		c0.46,0,0.868-0.049,1.226-0.147C7.115,7.713,7.416,7.576,7.661,7.4c0.244-0.177,0.423-0.382,0.536-0.617
		c0.112-0.234,0.149-0.479,0.11-0.733C8.287,5.854,8.155,5.656,7.91,5.455c-0.245-0.2-0.541-0.396-0.888-0.587
		c-0.348-0.19-0.714-0.376-1.101-0.558C5.535,4.13,5.19,3.956,4.887,3.789c0.02,0.206,0.046,0.429,0.081,0.668
		c0.034,0.24,0.076,0.519,0.125,0.837c0.049,0.318,0.11,0.692,0.184,1.123S5.435,7.361,5.533,7.958z"/>
	<path fill="#001D36" d="M10.86,8.428c-0.01,0.059-0.032,0.181-0.066,0.366c-0.034,0.187-0.071,0.404-0.11,0.653
		c-0.04,0.25-0.074,0.512-0.103,0.785c-0.029,0.274-0.046,0.533-0.051,0.778c-0.005,0.244,0.01,0.452,0.044,0.623
		c0.034,0.172,0.09,0.277,0.169,0.315c0.225,0.108,0.455,0.071,0.689-0.109c0.235-0.182,0.509-0.458,0.822-0.829
		c0.029,0,0.031,0.039,0.007,0.117c-0.025,0.078-0.064,0.164-0.118,0.257s-0.107,0.186-0.161,0.278
		c-0.054,0.094-0.096,0.154-0.125,0.184c-0.078,0.099-0.191,0.208-0.337,0.33c-0.147,0.123-0.304,0.221-0.47,0.295
		c-0.167,0.072-0.325,0.105-0.477,0.096s-0.276-0.098-0.374-0.266c-0.049-0.117-0.079-0.262-0.088-0.432
		c-0.01-0.171-0.01-0.345,0-0.521c0.01-0.176,0.024-0.337,0.044-0.484c0.02-0.146,0.034-0.254,0.044-0.322
		c-0.206,0.381-0.44,0.743-0.705,1.086s-0.523,0.612-0.778,0.807s-0.489,0.301-0.705,0.316c-0.215,0.014-0.381-0.111-0.499-0.375
		c-0.068-0.254-0.068-0.541,0-0.859c0.069-0.317,0.171-0.604,0.308-0.858c0.206-0.353,0.421-0.675,0.646-0.969
		s0.464-0.543,0.719-0.748c0.254-0.206,0.521-0.354,0.8-0.448C10.266,8.4,10.557,8.379,10.86,8.428z M8.101,12.155
		c0.098,0.02,0.254-0.053,0.47-0.22c0.215-0.166,0.44-0.398,0.675-0.696c0.235-0.299,0.448-0.646,0.638-1.042
		C10.075,9.8,10.2,9.381,10.258,8.941c-0.039,0-0.096,0-0.169,0S9.93,8.971,9.833,9.029C9.46,9.273,9.143,9.56,8.878,9.888
		c-0.264,0.328-0.469,0.646-0.616,0.954c-0.147,0.308-0.235,0.585-0.264,0.829S8.003,12.077,8.101,12.155z"/>
	<path fill="#001D36" d="M12.167,8.104c-0.01-0.088,0.037-0.11,0.139-0.066s0.208,0.091,0.315,0.14
		c0.039,0.226,0.068,0.403,0.088,0.536c0.02,0.132,0.034,0.257,0.044,0.374s0.02,0.244,0.029,0.382
		c0.01,0.137,0.024,0.317,0.044,0.543c0.088-0.226,0.196-0.434,0.323-0.624c0.127-0.19,0.291-0.354,0.492-0.492
		c0.201-0.137,0.44-0.236,0.719-0.301c0.279-0.063,0.614-0.085,1.005-0.065c0,0.078-0.027,0.145-0.081,0.198
		c-0.054,0.054-0.179,0.095-0.375,0.124c-0.284,0.05-0.531,0.145-0.741,0.286c-0.21,0.143-0.391,0.307-0.543,0.492
		s-0.274,0.384-0.367,0.595c-0.093,0.21-0.169,0.403-0.228,0.579c-0.01,0.088-0.022,0.213-0.037,0.374
		c-0.015,0.162-0.024,0.333-0.029,0.514c-0.005,0.182-0.01,0.357-0.015,0.529c-0.005,0.172,0.002,0.307,0.022,0.404
		c0.009,0.049-0.013,0.086-0.066,0.109s-0.115,0.041-0.183,0.051c-0.069,0.01-0.132,0.006-0.191-0.014s-0.088-0.055-0.088-0.104
		c0.02-1.007-0.007-1.875-0.081-2.605C12.291,9.335,12.225,8.682,12.167,8.104z"/>
	<path fill="#001D36" d="M17.978,8.428c-0.01,0.059-0.032,0.181-0.066,0.366c-0.034,0.187-0.071,0.404-0.11,0.653
		c-0.04,0.25-0.074,0.512-0.103,0.785c-0.029,0.274-0.046,0.533-0.051,0.778c-0.005,0.244,0.01,0.452,0.044,0.623
		c0.034,0.172,0.09,0.277,0.169,0.315c0.225,0.108,0.455,0.071,0.689-0.109c0.235-0.182,0.509-0.458,0.822-0.829
		c0.029,0,0.031,0.039,0.007,0.117c-0.025,0.078-0.064,0.164-0.118,0.257s-0.107,0.186-0.161,0.278
		c-0.054,0.094-0.096,0.154-0.125,0.184c-0.078,0.099-0.191,0.208-0.337,0.33c-0.147,0.123-0.304,0.221-0.47,0.295
		c-0.167,0.072-0.325,0.105-0.477,0.096s-0.276-0.098-0.374-0.266c-0.049-0.117-0.079-0.262-0.088-0.432
		c-0.01-0.171-0.01-0.345,0-0.521c0.01-0.176,0.024-0.337,0.044-0.484c0.02-0.146,0.034-0.254,0.044-0.322
		c-0.206,0.381-0.44,0.743-0.705,1.086s-0.523,0.612-0.778,0.807s-0.489,0.301-0.705,0.316c-0.215,0.014-0.381-0.111-0.499-0.375
		c-0.068-0.254-0.068-0.541,0-0.859c0.069-0.317,0.171-0.604,0.308-0.858c0.206-0.353,0.421-0.675,0.646-0.969
		s0.464-0.543,0.719-0.748c0.254-0.206,0.521-0.354,0.8-0.448C17.384,8.4,17.675,8.379,17.978,8.428z M15.219,12.155
		c0.098,0.02,0.254-0.053,0.47-0.22c0.215-0.166,0.44-0.398,0.675-0.696c0.235-0.299,0.448-0.646,0.638-1.042
		c0.191-0.396,0.316-0.815,0.375-1.255c-0.039,0-0.096,0-0.169,0s-0.159,0.029-0.257,0.088c-0.372,0.244-0.689,0.53-0.954,0.858
		c-0.264,0.328-0.469,0.646-0.616,0.954c-0.147,0.308-0.235,0.585-0.264,0.829S15.121,12.077,15.219,12.155z"/>
	<path fill="#001D36" d="M22.219,9.704c0,0.029,0.015,0.167,0.044,0.411s0.063,0.543,0.103,0.896
		c0.039,0.352,0.085,0.731,0.139,1.136c0.054,0.406,0.103,0.793,0.147,1.16c0.044,0.367,0.085,0.689,0.125,0.969
		s0.063,0.457,0.073,0.535c-0.059-0.01-0.107-0.02-0.146-0.029s-0.079-0.033-0.118-0.072s-0.085-0.096-0.139-0.17
		c-0.054-0.072-0.13-0.178-0.228-0.314c-0.127-0.9-0.228-1.686-0.301-2.356c-0.074-0.67-0.135-1.216-0.184-1.637
		c-0.176,0.235-0.303,0.392-0.381,0.47c-0.079,0.078-0.127,0.117-0.147,0.117c-0.029,0-0.034-0.044-0.015-0.132
		c0.01-0.049,0.02-0.098,0.029-0.146s0.02-0.093,0.029-0.133c0.01-0.038,0.024-0.073,0.044-0.103
		c0.069-0.098,0.13-0.195,0.184-0.293s0.095-0.187,0.125-0.265c0.039-0.098,0.068-0.19,0.088-0.278
		c-0.01-0.108-0.017-0.201-0.022-0.279c-0.005-0.078-0.007-0.159-0.007-0.242s-0.002-0.169-0.007-0.257
		c-0.005-0.088-0.007-0.2-0.007-0.338c0-0.127,0-0.32,0-0.579c0-0.26,0-0.548,0-0.866c0-0.317,0.005-0.653,0.015-1.005
		c0.009-0.353,0.022-0.688,0.037-1.006c0.015-0.317,0.034-0.606,0.059-0.866c0.024-0.259,0.051-0.457,0.081-0.594
		c0.068-0.284,0.174-0.502,0.316-0.653c0.142-0.151,0.291-0.239,0.447-0.264c0.157-0.024,0.311,0.015,0.462,0.117
		s0.267,0.262,0.345,0.477c0.088,0.216,0.132,0.494,0.132,0.837s-0.029,0.717-0.088,1.123c-0.059,0.405-0.14,0.829-0.242,1.269
		c-0.103,0.44-0.213,0.869-0.33,1.285c-0.118,0.415-0.235,0.805-0.353,1.166C22.41,9.156,22.307,9.46,22.219,9.704z M22.102,8.867
		c0.245-0.714,0.445-1.416,0.602-2.105c0.156-0.69,0.271-1.309,0.345-1.856s0.098-0.991,0.073-1.328
		c-0.024-0.338-0.095-0.512-0.212-0.521c-0.186-0.068-0.333-0.005-0.44,0.19c-0.108,0.196-0.193,0.47-0.257,0.822
		c-0.064,0.353-0.105,0.756-0.125,1.211s-0.027,0.907-0.022,1.357s0.012,0.876,0.022,1.277S22.102,8.633,22.102,8.867z"/>
	<path fill="#001D36" d="M23.687,8.339c0.186,0.01,0.392,0.037,0.617,0.081c0.225,0.044,0.445,0.103,0.66,0.176
		c0.215,0.074,0.414,0.157,0.595,0.25c0.181,0.093,0.33,0.198,0.447,0.315c0.118,0.107,0.186,0.271,0.206,0.491
		c0.02,0.221,0.005,0.463-0.044,0.727c-0.049,0.265-0.125,0.536-0.228,0.814c-0.103,0.279-0.218,0.531-0.345,0.756
		c-0.127,0.225-0.264,0.411-0.411,0.559c-0.146,0.146-0.284,0.219-0.411,0.219c-0.215,0-0.396-0.051-0.543-0.154
		c-0.146-0.102-0.264-0.227-0.352-0.373s-0.154-0.301-0.198-0.462c-0.044-0.162-0.071-0.302-0.081-0.419
		c-0.029-0.519-0.034-0.979-0.015-1.379c0.02-0.401,0.054-0.734,0.103-0.998c-0.029-0.049-0.059-0.094-0.088-0.133
		s-0.059-0.075-0.088-0.109c-0.03-0.034-0.063-0.066-0.103-0.096c0.04-0.02,0.079-0.049,0.118-0.088
		C23.604,8.457,23.657,8.398,23.687,8.339z M24.215,11.832c0.029,0.039,0.068,0.081,0.118,0.125c0.049,0.043,0.11,0.079,0.184,0.102
		c0.073,0.025,0.149,0.027,0.227,0.008c0.079-0.02,0.162-0.072,0.25-0.162c0.235-0.244,0.411-0.496,0.528-0.756
		c0.118-0.259,0.193-0.504,0.228-0.733s0.029-0.433-0.015-0.609c-0.044-0.176-0.115-0.303-0.213-0.381
		c-0.078-0.05-0.144-0.091-0.198-0.125c-0.054-0.034-0.123-0.066-0.206-0.096c-0.083-0.029-0.188-0.061-0.315-0.096
		c-0.127-0.034-0.293-0.08-0.499-0.139c-0.098,0.312-0.167,0.626-0.206,0.938c-0.039,0.313-0.057,0.6-0.051,0.859
		c0.005,0.259,0.024,0.484,0.059,0.675C24.139,11.634,24.176,11.764,24.215,11.832z"/>
	<path fill="#001D36" d="M28.441,8.119c0.245,0.039,0.448,0.093,0.609,0.161c0.161,0.068,0.289,0.145,0.381,0.228
		s0.167,0.169,0.22,0.257s0.105,0.172,0.154,0.25C29.796,9.054,29.75,9.049,29.667,9s-0.164-0.098-0.242-0.147
		c-0.215-0.137-0.475-0.22-0.778-0.249s-0.584-0.013-0.844,0.052c-0.259,0.063-0.467,0.174-0.624,0.33
		c-0.156,0.156-0.196,0.347-0.117,0.572c0.078,0.225,0.218,0.421,0.418,0.587c0.2,0.166,0.423,0.315,0.667,0.447
		c0.245,0.133,0.489,0.252,0.734,0.359c0.245,0.108,0.445,0.216,0.602,0.323c0.196-0.107,0.362-0.198,0.499-0.271
		s0.259-0.142,0.367-0.205c0.107-0.063,0.217-0.122,0.33-0.177c0.112-0.054,0.242-0.114,0.389-0.184
		c0.02-0.009,0.037-0.015,0.051-0.015s0.015,0.013,0,0.037s-0.054,0.063-0.118,0.117s-0.164,0.13-0.301,0.228
		c-0.068,0.049-0.196,0.132-0.381,0.25c-0.186,0.117-0.387,0.244-0.602,0.381c0.118,0.108,0.21,0.221,0.279,0.338
		c0.059,0.107,0.101,0.223,0.125,0.344c0.024,0.123,0.002,0.248-0.066,0.375c-0.196,0.312-0.416,0.559-0.661,0.734
		s-0.47,0.297-0.675,0.367c-0.137,0.049-0.289,0.053-0.455,0.014c-0.167-0.039-0.299-0.117-0.396-0.234
		c-0.108-0.156-0.135-0.316-0.081-0.477c0.054-0.162,0.144-0.318,0.271-0.471c0.127-0.15,0.274-0.295,0.44-0.432
		c0.166-0.138,0.313-0.26,0.44-0.368c-0.088-0.098-0.259-0.218-0.514-0.359c-0.254-0.143-0.516-0.299-0.785-0.47
		s-0.511-0.354-0.727-0.551c-0.215-0.195-0.333-0.391-0.352-0.587c-0.039-0.215-0.012-0.423,0.081-0.624
		c0.093-0.2,0.23-0.376,0.411-0.528c0.181-0.151,0.391-0.264,0.631-0.337C27.925,8.097,28.177,8.08,28.441,8.119z M28.31,13.153
		c0.107,0.049,0.229,0.049,0.367,0s0.267-0.119,0.389-0.213c0.122-0.092,0.229-0.195,0.323-0.309
		c0.093-0.111,0.154-0.213,0.184-0.301c0.029-0.078,0.002-0.162-0.081-0.256c-0.083-0.093-0.168-0.169-0.257-0.228
		c-0.107,0.079-0.23,0.179-0.367,0.3c-0.137,0.123-0.257,0.248-0.359,0.375c-0.103,0.127-0.179,0.25-0.228,0.367
		C28.231,13.006,28.241,13.094,28.31,13.153z"/>
	<path fill="#001D36" d="M36.205,8.428c-0.01,0.059-0.032,0.181-0.066,0.366c-0.034,0.187-0.071,0.404-0.11,0.653
		c-0.04,0.25-0.074,0.512-0.103,0.785c-0.029,0.274-0.046,0.533-0.051,0.778c-0.005,0.244,0.01,0.452,0.044,0.623
		c0.034,0.172,0.09,0.277,0.169,0.315c0.225,0.108,0.455,0.071,0.689-0.109c0.235-0.182,0.509-0.458,0.822-0.829
		c0.029,0,0.031,0.039,0.007,0.117c-0.025,0.078-0.064,0.164-0.118,0.257s-0.107,0.186-0.161,0.278
		c-0.054,0.094-0.096,0.154-0.125,0.184c-0.078,0.099-0.191,0.208-0.337,0.33c-0.147,0.123-0.304,0.221-0.47,0.295
		c-0.167,0.072-0.325,0.105-0.477,0.096s-0.276-0.098-0.374-0.266c-0.049-0.117-0.079-0.262-0.088-0.432
		c-0.01-0.171-0.01-0.345,0-0.521c0.01-0.176,0.024-0.337,0.044-0.484c0.02-0.146,0.034-0.254,0.044-0.322
		c-0.206,0.381-0.44,0.743-0.705,1.086s-0.523,0.612-0.778,0.807s-0.489,0.301-0.705,0.316c-0.215,0.014-0.381-0.111-0.499-0.375
		c-0.068-0.254-0.068-0.541,0-0.859c0.069-0.317,0.171-0.604,0.308-0.858c0.206-0.353,0.421-0.675,0.646-0.969
		s0.464-0.543,0.719-0.748c0.254-0.206,0.521-0.354,0.8-0.448C35.611,8.4,35.902,8.379,36.205,8.428z M33.446,12.155
		c0.098,0.02,0.254-0.053,0.47-0.22c0.215-0.166,0.44-0.398,0.675-0.696c0.235-0.299,0.448-0.646,0.638-1.042
		c0.191-0.396,0.316-0.815,0.375-1.255c-0.039,0-0.096,0-0.169,0s-0.159,0.029-0.257,0.088c-0.372,0.244-0.689,0.53-0.954,0.858
		c-0.264,0.328-0.469,0.646-0.616,0.954c-0.147,0.308-0.235,0.585-0.264,0.829S33.348,12.077,33.446,12.155z"/>
	<path fill="#001D36" d="M37.526,7.796c0-0.088,0.024-0.139,0.073-0.153c0.049-0.015,0.1-0.013,0.154,0.007
		c0.053,0.02,0.107,0.052,0.161,0.096s0.09,0.075,0.11,0.095c0.02,0.255,0.009,0.603-0.029,1.042
		c-0.04,0.44-0.059,0.989-0.059,1.645c0.039-0.156,0.098-0.343,0.176-0.558c0.078-0.216,0.169-0.434,0.271-0.653
		c0.103-0.221,0.215-0.426,0.337-0.616c0.123-0.191,0.242-0.343,0.36-0.455c0.117-0.112,0.229-0.169,0.337-0.169
		c0.107,0,0.206,0.083,0.293,0.249c0.02,0.05,0.037,0.149,0.051,0.301c0.015,0.152,0.024,0.336,0.03,0.551
		c0.004,0.216,0.012,0.455,0.022,0.719c0.009,0.265,0.024,0.534,0.044,0.808c0.088-0.215,0.188-0.452,0.301-0.712
		c0.112-0.259,0.232-0.494,0.359-0.704c0.127-0.211,0.264-0.374,0.411-0.492c0.147-0.117,0.303-0.142,0.47-0.073
		c0.078,0.029,0.132,0.12,0.161,0.271c0.03,0.152,0.054,0.33,0.074,0.536c0.02,0.205,0.042,0.423,0.066,0.652
		c0.024,0.23,0.071,0.438,0.14,0.624c0.068,0.187,0.166,0.336,0.293,0.448c0.127,0.112,0.298,0.153,0.514,0.124
		c0.117,0,0.203,0.003,0.257,0.008c0.054,0.005,0.093,0.013,0.117,0.021c0.024,0.01,0.034,0.025,0.029,0.044
		c-0.005,0.021-0.007,0.05-0.007,0.089c-0.362,0.186-0.658,0.247-0.888,0.184c-0.23-0.064-0.411-0.201-0.543-0.411
		c-0.132-0.211-0.226-0.465-0.279-0.764c-0.054-0.298-0.091-0.594-0.11-0.888c-0.02-0.127-0.061-0.181-0.125-0.161
		c-0.064,0.02-0.142,0.093-0.235,0.22c-0.093,0.127-0.193,0.286-0.301,0.478c-0.108,0.19-0.211,0.394-0.309,0.608
		c-0.098,0.216-0.183,0.424-0.257,0.624c-0.073,0.2-0.129,0.364-0.168,0.491c-0.049,0.088-0.127,0.114-0.235,0.075
		c-0.108-0.04-0.176-0.114-0.206-0.221c-0.039-0.156-0.061-0.35-0.066-0.58c-0.005-0.229-0.005-0.462,0-0.696
		c0.005-0.235,0.012-0.463,0.022-0.683c0.01-0.221,0.01-0.408,0-0.565c-0.01-0.156-0.029-0.264-0.059-0.322
		c-0.03-0.06-0.083-0.045-0.162,0.044c-0.167,0.254-0.321,0.543-0.462,0.865c-0.142,0.323-0.267,0.658-0.374,1.006
		c-0.108,0.348-0.198,0.694-0.271,1.042c-0.074,0.347-0.12,0.664-0.14,0.947c-0.167,0.039-0.284,0.018-0.352-0.066
		c-0.069-0.082-0.127-0.168-0.176-0.256c0.02-0.129,0.037-0.375,0.051-0.742c0.015-0.367,0.029-0.785,0.044-1.255
		s0.029-0.949,0.044-1.438C37.504,8.584,37.516,8.158,37.526,7.796z"/>
	<path fill="#001D36" d="M46.008,8.428c-0.01,0.059-0.032,0.181-0.066,0.366c-0.034,0.187-0.071,0.404-0.11,0.653
		c-0.04,0.25-0.074,0.512-0.103,0.785c-0.029,0.274-0.046,0.533-0.051,0.778c-0.005,0.244,0.01,0.452,0.044,0.623
		c0.034,0.172,0.09,0.277,0.169,0.315c0.225,0.108,0.455,0.071,0.689-0.109c0.235-0.182,0.509-0.458,0.822-0.829
		c0.029,0,0.031,0.039,0.007,0.117c-0.025,0.078-0.064,0.164-0.118,0.257s-0.107,0.186-0.161,0.278
		c-0.054,0.094-0.096,0.154-0.125,0.184c-0.078,0.099-0.191,0.208-0.337,0.33c-0.147,0.123-0.304,0.221-0.47,0.295
		c-0.167,0.072-0.325,0.105-0.477,0.096s-0.276-0.098-0.374-0.266c-0.049-0.117-0.079-0.262-0.088-0.432
		c-0.01-0.171-0.01-0.345,0-0.521c0.01-0.176,0.024-0.337,0.044-0.484c0.02-0.146,0.034-0.254,0.044-0.322
		c-0.206,0.381-0.44,0.743-0.705,1.086s-0.523,0.612-0.778,0.807s-0.489,0.301-0.705,0.316c-0.215,0.014-0.381-0.111-0.499-0.375
		c-0.068-0.254-0.068-0.541,0-0.859c0.069-0.317,0.171-0.604,0.308-0.858c0.206-0.353,0.421-0.675,0.646-0.969
		s0.464-0.543,0.719-0.748c0.254-0.206,0.521-0.354,0.8-0.448C45.414,8.4,45.705,8.379,46.008,8.428z M43.249,12.155
		c0.098,0.02,0.254-0.053,0.47-0.22c0.215-0.166,0.44-0.398,0.675-0.696c0.235-0.299,0.448-0.646,0.638-1.042
		c0.191-0.396,0.316-0.815,0.375-1.255c-0.039,0-0.096,0-0.169,0s-0.159,0.029-0.257,0.088c-0.372,0.244-0.689,0.53-0.954,0.858
		c-0.264,0.328-0.469,0.646-0.616,0.954c-0.147,0.308-0.235,0.585-0.264,0.829S43.151,12.077,43.249,12.155z"/>
	<path fill="#001D36" d="M47.843,8.266c0,0.274-0.002,0.548-0.007,0.822c-0.005,0.273-0.01,0.538-0.015,0.792
		c-0.005,0.255-0.01,0.494-0.015,0.72c-0.005,0.225-0.013,0.426-0.022,0.602c0-0.039,0.022-0.135,0.066-0.286
		s0.105-0.325,0.183-0.521c0.079-0.195,0.164-0.403,0.257-0.623c0.093-0.221,0.193-0.416,0.301-0.587
		c0.107-0.172,0.217-0.306,0.33-0.404c0.112-0.098,0.218-0.127,0.315-0.088c0.215,0.098,0.367,0.24,0.455,0.426
		s0.151,0.398,0.191,0.639c0.039,0.239,0.078,0.506,0.117,0.8c0.039,0.293,0.127,0.602,0.264,0.925
		c0.059,0.146,0.145,0.254,0.257,0.322s0.221,0.117,0.322,0.146c0.104,0.03,0.187,0.047,0.25,0.051
		c0.063,0.006,0.086,0.023,0.066,0.053c-0.244,0.186-0.455,0.248-0.631,0.189s-0.325-0.188-0.448-0.388
		c-0.122-0.2-0.223-0.44-0.301-0.72c-0.078-0.278-0.149-0.548-0.213-0.807c-0.063-0.26-0.12-0.479-0.168-0.661
		c-0.049-0.181-0.103-0.271-0.162-0.271c-0.088,0.011-0.184,0.094-0.286,0.25s-0.208,0.353-0.315,0.587
		c-0.108,0.235-0.21,0.492-0.308,0.771c-0.098,0.279-0.188,0.541-0.271,0.785c-0.083,0.246-0.149,0.455-0.198,0.63
		c-0.049,0.178-0.079,0.285-0.088,0.324c-0.146,0-0.237,0.004-0.271,0.014s-0.09-0.039-0.168-0.146
		c0.049-0.861,0.066-1.675,0.051-2.444c-0.015-0.768-0.037-1.436-0.066-2.003c0-0.088,0.022-0.132,0.066-0.132
		s0.093,0.02,0.146,0.059s0.11,0.078,0.169,0.117S47.804,8.266,47.843,8.266z"/>
	<path fill="#001D36" d="M52.32,8.368c0.42-0.029,0.834-0.061,1.238-0.095c0.406-0.034,0.83-0.071,1.27-0.11
		c0.1,0.01,0.162,0.062,0.191,0.154s-0.01,0.149-0.117,0.169c-0.361,0.039-0.777,0.093-1.248,0.161
		c-0.469,0.068-0.914,0.156-1.334,0.265c0.02,0.303,0.029,0.613,0.029,0.932s0.006,0.631,0.021,0.939
		c0.014,0.308,0.043,0.606,0.088,0.895c0.043,0.289,0.115,0.555,0.213,0.799c0.137,0.168,0.273,0.266,0.41,0.295
		s0.268,0.021,0.389-0.021c0.123-0.045,0.236-0.113,0.338-0.207c0.104-0.092,0.193-0.184,0.271-0.271
		c0.068-0.068,0.125-0.068,0.17,0c0.043,0.068,0.002,0.172-0.125,0.309c-0.059,0.068-0.133,0.143-0.221,0.221
		s-0.193,0.145-0.314,0.197c-0.123,0.055-0.26,0.088-0.412,0.104c-0.152,0.014-0.314-0.002-0.492-0.051
		c-0.225-0.061-0.391-0.24-0.498-0.543c-0.107-0.305-0.189-0.659-0.242-1.065c-0.055-0.406-0.09-0.829-0.109-1.27
		c-0.021-0.44-0.045-0.837-0.074-1.188c-0.432,0.039-0.746,0.073-0.947,0.103c-0.2,0.029-0.344,0.049-0.432,0.059
		c-0.089,0.01-0.147,0.005-0.177-0.015S50.122,9.068,50.044,9c0.01-0.049,0.013-0.096,0.008-0.14s-0.005-0.081,0-0.11
		s0.024-0.059,0.059-0.088s0.101-0.054,0.198-0.073c0.146-0.039,0.359-0.062,0.639-0.066s0.551-0.026,0.814-0.065
		c-0.01-0.313-0.02-0.558-0.029-0.734c-0.01-0.176-0.02-0.33-0.029-0.462s-0.018-0.262-0.021-0.389
		c-0.006-0.128-0.008-0.294-0.008-0.499c0-0.049,0.027-0.086,0.08-0.11c0.055-0.024,0.115-0.039,0.184-0.044
		s0.133,0.005,0.191,0.029s0.098,0.062,0.117,0.11c0.029,0.088,0.049,0.218,0.059,0.389s0.018,0.352,0.021,0.543
		c0.006,0.19,0.008,0.384,0.008,0.579C52.334,8.065,52.328,8.231,52.32,8.368z"/>
	<path fill="#001D36" d="M55.416,8.589c0.029-0.01,0.112-0.037,0.249-0.081s0.25-0.051,0.338-0.021
		c0.283-0.01,0.501,0.063,0.653,0.22c0.151,0.156,0.163,0.46,0.036,0.91c-0.186,0.499-0.433,0.915-0.741,1.247
		c-0.308,0.333-0.673,0.651-1.094,0.954c0.099,0.255,0.245,0.396,0.44,0.425c0.196,0.029,0.401-0.002,0.617-0.096
		c0.215-0.092,0.425-0.217,0.631-0.374c0.205-0.156,0.371-0.293,0.499-0.411c0.205-0.176,0.369-0.325,0.491-0.447
		s0.252-0.271,0.389-0.447c0.03-0.02,0.047-0.018,0.052,0.007s0.002,0.062-0.007,0.11c-0.011,0.049-0.025,0.117-0.045,0.205
		c-0.029,0.068-0.059,0.13-0.088,0.184s-0.07,0.112-0.124,0.176c-0.055,0.064-0.125,0.14-0.213,0.228
		c-0.089,0.089-0.196,0.206-0.323,0.353c-0.146,0.137-0.289,0.271-0.426,0.404s-0.281,0.246-0.433,0.344
		c-0.152,0.1-0.318,0.168-0.499,0.207c-0.182,0.039-0.389,0.039-0.624,0c-0.195-0.068-0.353-0.143-0.47-0.221
		s-0.208-0.158-0.271-0.242s-0.11-0.158-0.14-0.227c-0.029-0.069-0.049-0.128-0.059-0.177c-0.049-0.195-0.068-0.46-0.059-0.792
		c0.01-0.333,0.107-0.764,0.294-1.292c0.127-0.273,0.264-0.506,0.411-0.697C55.049,8.846,55.22,8.696,55.416,8.589z M54.77,11.187
		c0.127-0.068,0.276-0.164,0.448-0.286c0.171-0.122,0.332-0.265,0.484-0.426c0.151-0.161,0.283-0.34,0.396-0.535
		c0.112-0.196,0.174-0.401,0.184-0.617c0.029-0.146,0.024-0.249-0.015-0.308c-0.02-0.029-0.039-0.044-0.059-0.044
		c-0.166-0.078-0.333-0.054-0.499,0.073s-0.318,0.308-0.455,0.543c-0.137,0.234-0.252,0.496-0.345,0.785S54.77,10.933,54.77,11.187z
		"/>
	<path fill="#001D36" d="M59.379,8.119c0.245,0.039,0.448,0.093,0.61,0.161c0.16,0.068,0.288,0.145,0.381,0.228
		s0.166,0.169,0.221,0.257c0.053,0.088,0.105,0.172,0.154,0.25C60.736,9.054,60.689,9.049,60.605,9
		c-0.082-0.049-0.164-0.098-0.242-0.147c-0.215-0.137-0.475-0.22-0.779-0.249c-0.303-0.029-0.585-0.013-0.845,0.052
		c-0.259,0.063-0.467,0.174-0.623,0.33c-0.157,0.156-0.196,0.347-0.118,0.572c0.079,0.225,0.218,0.421,0.419,0.587
		c0.2,0.166,0.423,0.315,0.668,0.447c0.245,0.133,0.489,0.252,0.733,0.359c0.245,0.108,0.446,0.216,0.603,0.323
		c0.195-0.107,0.363-0.198,0.5-0.271s0.26-0.142,0.367-0.205s0.217-0.122,0.33-0.177c0.111-0.054,0.242-0.114,0.389-0.184
		c0.02-0.009,0.037-0.015,0.051-0.015c0.016,0,0.016,0.013,0,0.037c-0.014,0.024-0.053,0.063-0.117,0.117s-0.164,0.13-0.301,0.228
		c-0.068,0.049-0.195,0.132-0.381,0.25c-0.188,0.117-0.387,0.244-0.602,0.381c0.117,0.108,0.209,0.221,0.277,0.338
		c0.059,0.107,0.102,0.223,0.125,0.344c0.025,0.123,0.002,0.248-0.066,0.375c-0.195,0.312-0.416,0.559-0.66,0.734
		c-0.245,0.176-0.47,0.297-0.675,0.367c-0.139,0.049-0.29,0.053-0.456,0.014c-0.168-0.039-0.299-0.117-0.397-0.234
		c-0.107-0.156-0.135-0.316-0.081-0.477c0.054-0.162,0.145-0.318,0.271-0.471c0.128-0.15,0.275-0.295,0.441-0.432
		c0.167-0.138,0.313-0.26,0.44-0.368c-0.088-0.098-0.258-0.218-0.514-0.359c-0.254-0.143-0.516-0.299-0.785-0.47
		s-0.512-0.354-0.727-0.551c-0.215-0.195-0.332-0.391-0.353-0.587c-0.038-0.215-0.012-0.423,0.081-0.624
		c0.093-0.2,0.229-0.376,0.411-0.528c0.181-0.151,0.392-0.264,0.631-0.337C58.862,8.097,59.115,8.08,59.379,8.119z M59.246,13.153
		c0.108,0.049,0.231,0.049,0.368,0c0.137-0.049,0.266-0.119,0.389-0.213c0.123-0.092,0.231-0.195,0.325-0.309
		c0.092-0.111,0.152-0.213,0.182-0.301c0.029-0.078,0.004-0.162-0.08-0.256c-0.084-0.093-0.168-0.169-0.256-0.228
		c-0.11,0.079-0.231,0.179-0.368,0.3c-0.137,0.123-0.258,0.248-0.36,0.375c-0.104,0.127-0.18,0.25-0.229,0.367
		S59.177,13.094,59.246,13.153z"/>
	<path fill="#001D36" d="M69.199,5.022c-0.029,0.176-0.064,0.362-0.104,0.558c-0.039,0.196-0.08,0.382-0.125,0.558
		c-0.043,0.176-0.08,0.328-0.109,0.455s-0.049,0.205-0.059,0.234c-0.059,0.167-0.137,0.382-0.234,0.646
		c-0.098,0.264-0.213,0.54-0.346,0.829c-0.133,0.288-0.281,0.577-0.447,0.866c-0.166,0.288-0.338,0.535-0.514,0.74
		c0,0.147,0.018,0.395,0.051,0.741c0.035,0.348,0.076,0.722,0.125,1.123c0.049,0.401,0.096,0.795,0.139,1.182
		c0.045,0.387,0.072,0.688,0.082,0.902c-0.049,0.049-0.094,0.039-0.133-0.029s-0.098-0.186-0.176-0.354
		c-0.059-0.254-0.105-0.488-0.139-0.703c-0.035-0.215-0.066-0.434-0.096-0.654c-0.029-0.219-0.062-0.452-0.096-0.697
		c-0.035-0.244-0.086-0.522-0.154-0.836c-0.186,0.234-0.408,0.501-0.668,0.8s-0.527,0.562-0.807,0.792
		c-0.279,0.23-0.553,0.393-0.822,0.484c-0.27,0.094-0.502,0.053-0.697-0.123c-0.117-0.158-0.168-0.34-0.154-0.551
		c0.016-0.21,0.074-0.426,0.176-0.646c0.104-0.221,0.236-0.438,0.396-0.653c0.162-0.215,0.326-0.416,0.492-0.602
		s0.322-0.348,0.469-0.484c0.148-0.137,0.256-0.235,0.324-0.294c0.137-0.088,0.252-0.158,0.344-0.213
		c0.094-0.054,0.178-0.098,0.25-0.132c0.074-0.034,0.148-0.059,0.229-0.073c0.078-0.015,0.176-0.017,0.293-0.008
		c-0.02-0.225-0.031-0.493-0.037-0.807s-0.006-0.629,0-0.946c0.006-0.318,0.016-0.614,0.029-0.889
		c0.016-0.273,0.037-0.484,0.066-0.631c0.02-0.215,0.066-0.44,0.139-0.675c0.074-0.235,0.166-0.463,0.279-0.683
		c0.113-0.221,0.236-0.416,0.375-0.587c0.137-0.171,0.285-0.294,0.447-0.367s0.328-0.09,0.498-0.052
		c0.172,0.04,0.34,0.162,0.508,0.367c0.137,0.167,0.205,0.374,0.205,0.624C69.199,4.486,69.199,4.749,69.199,5.022z M65.132,10.306
		c-0.264,0.274-0.457,0.526-0.578,0.756c-0.123,0.23-0.223,0.443-0.303,0.639c0,0.029,0,0.076,0,0.14s0.008,0.124,0.023,0.184
		c0.014,0.059,0.043,0.109,0.088,0.152c0.043,0.045,0.115,0.057,0.213,0.037c0.098-0.039,0.178-0.078,0.242-0.117
		c0.062-0.039,0.121-0.08,0.176-0.125c0.053-0.044,0.111-0.091,0.176-0.14s0.145-0.112,0.242-0.19
		c0.137-0.146,0.307-0.313,0.506-0.499c0.201-0.186,0.377-0.382,0.529-0.587c0.15-0.206,0.252-0.416,0.301-0.632
		c0.049-0.215-0.016-0.425-0.191-0.631c-0.068,0-0.139,0.01-0.213,0.029c-0.072,0.021-0.164,0.066-0.271,0.14
		s-0.236,0.176-0.389,0.309C65.531,9.902,65.347,10.081,65.132,10.306z M67.261,8.941c0.176-0.196,0.322-0.404,0.439-0.624
		c0.117-0.221,0.25-0.482,0.396-0.785c0.127-0.265,0.242-0.602,0.346-1.013c0.102-0.411,0.174-0.814,0.213-1.211
		s0.039-0.741,0-1.035c-0.039-0.293-0.137-0.449-0.295-0.469c-0.137-0.02-0.264,0.031-0.381,0.153
		c-0.117,0.123-0.225,0.274-0.322,0.455c-0.098,0.182-0.182,0.374-0.25,0.58c-0.068,0.205-0.117,0.387-0.146,0.543
		c-0.039,0.195-0.066,0.372-0.08,0.528c-0.016,0.156-0.025,0.32-0.029,0.491c-0.006,0.172-0.014,0.357-0.023,0.558
		c-0.01,0.201-0.029,0.448-0.059,0.741c0,0.147,0.008,0.294,0.023,0.44c0.014,0.147,0.033,0.271,0.059,0.375
		c0.023,0.103,0.045,0.181,0.064,0.234S67.251,8.971,67.261,8.941z"/>
	<path fill="#001D36" d="M69.625,8.589c0.029-0.01,0.113-0.037,0.25-0.081s0.25-0.051,0.338-0.021c0.283-0.01,0.5,0.063,0.652,0.22
		s0.164,0.46,0.037,0.91c-0.186,0.499-0.434,0.915-0.742,1.247c-0.307,0.333-0.672,0.651-1.094,0.954
		c0.1,0.255,0.246,0.396,0.441,0.425s0.4-0.002,0.617-0.096c0.215-0.092,0.424-0.217,0.631-0.374
		c0.205-0.156,0.371-0.293,0.498-0.411c0.205-0.176,0.369-0.325,0.492-0.447c0.121-0.122,0.252-0.271,0.389-0.447
		c0.029-0.02,0.047-0.018,0.051,0.007c0.006,0.024,0.002,0.062-0.006,0.11c-0.012,0.049-0.025,0.117-0.045,0.205
		c-0.029,0.068-0.059,0.13-0.088,0.184s-0.07,0.112-0.125,0.176c-0.055,0.064-0.125,0.14-0.213,0.228
		c-0.088,0.089-0.195,0.206-0.322,0.353C71.24,11.866,71.097,12,70.96,12.133s-0.281,0.246-0.434,0.344
		c-0.152,0.1-0.318,0.168-0.498,0.207c-0.182,0.039-0.389,0.039-0.625,0c-0.195-0.068-0.352-0.143-0.469-0.221
		s-0.209-0.158-0.271-0.242c-0.064-0.084-0.111-0.158-0.141-0.227c-0.029-0.069-0.049-0.128-0.059-0.177
		c-0.049-0.195-0.068-0.46-0.059-0.792c0.01-0.333,0.107-0.764,0.295-1.292c0.127-0.273,0.264-0.506,0.41-0.697
		C69.257,8.846,69.429,8.696,69.625,8.589z M68.978,11.187c0.127-0.068,0.277-0.164,0.449-0.286c0.17-0.122,0.332-0.265,0.484-0.426
		c0.15-0.161,0.283-0.34,0.395-0.535c0.113-0.196,0.174-0.401,0.184-0.617c0.029-0.146,0.025-0.249-0.014-0.308
		c-0.02-0.029-0.039-0.044-0.059-0.044c-0.166-0.078-0.334-0.054-0.5,0.073s-0.318,0.308-0.455,0.543
		c-0.137,0.234-0.252,0.496-0.344,0.785C69.025,10.661,68.978,10.933,68.978,11.187z"/>
	<path fill="#001D36" d="M73.058,9.704c0,0.029,0.016,0.167,0.045,0.411s0.064,0.543,0.104,0.896
		c0.039,0.352,0.084,0.731,0.139,1.136c0.053,0.406,0.104,0.793,0.146,1.16c0.045,0.367,0.086,0.689,0.125,0.969
		s0.064,0.457,0.074,0.535c-0.059-0.01-0.109-0.02-0.148-0.029s-0.078-0.033-0.117-0.072s-0.086-0.096-0.139-0.17
		c-0.055-0.072-0.131-0.178-0.229-0.314c-0.127-0.9-0.227-1.686-0.301-2.356c-0.072-0.67-0.133-1.216-0.182-1.637
		c-0.178,0.235-0.305,0.392-0.383,0.47s-0.127,0.117-0.146,0.117c-0.029,0-0.035-0.044-0.016-0.132
		c0.012-0.049,0.021-0.098,0.031-0.146s0.02-0.093,0.029-0.133c0.01-0.038,0.023-0.073,0.043-0.103
		c0.068-0.098,0.131-0.195,0.184-0.293s0.096-0.187,0.125-0.265c0.039-0.098,0.068-0.19,0.088-0.278
		c-0.01-0.108-0.018-0.201-0.021-0.279c-0.006-0.078-0.008-0.159-0.008-0.242S72.5,8.779,72.494,8.691
		c-0.004-0.088-0.008-0.2-0.008-0.338c0-0.127,0-0.32,0-0.579c0-0.26,0-0.548,0-0.866c0-0.317,0.006-0.653,0.016-1.005
		c0.01-0.353,0.021-0.688,0.037-1.006c0.014-0.317,0.033-0.606,0.059-0.866c0.023-0.259,0.051-0.457,0.08-0.594
		c0.068-0.284,0.174-0.502,0.316-0.653c0.141-0.151,0.291-0.239,0.447-0.264s0.311,0.015,0.463,0.117
		c0.15,0.103,0.266,0.262,0.344,0.477c0.088,0.216,0.133,0.494,0.133,0.837s-0.029,0.717-0.088,1.123
		c-0.059,0.405-0.141,0.829-0.242,1.269c-0.104,0.44-0.213,0.869-0.33,1.285c-0.117,0.415-0.236,0.805-0.354,1.166
		C73.25,9.156,73.148,9.46,73.058,9.704z M72.941,8.867c0.246-0.714,0.445-1.416,0.602-2.105c0.158-0.69,0.271-1.309,0.346-1.856
		s0.098-0.991,0.074-1.328c-0.025-0.338-0.096-0.512-0.213-0.521c-0.188-0.068-0.334-0.005-0.441,0.19
		c-0.107,0.196-0.193,0.47-0.256,0.822c-0.064,0.353-0.105,0.756-0.125,1.211S72.9,6.187,72.906,6.637
		c0.004,0.45,0.012,0.876,0.021,1.277S72.941,8.633,72.941,8.867z"/>
	<path fill="#001D36" d="M76.097,3.32c0.029,0,0.064-0.013,0.109-0.037c0.043-0.024,0.09-0.031,0.139-0.022
		c0.049,0.011,0.094,0.055,0.133,0.133s0.068,0.215,0.088,0.411c0.02,0.244,0.039,0.543,0.059,0.895
		c0.02,0.353,0.041,0.731,0.066,1.138c0.023,0.406,0.051,0.829,0.08,1.27s0.059,0.868,0.088,1.284s0.057,0.803,0.082,1.159
		c0.023,0.357,0.045,0.663,0.064,0.918c0.029-0.118,0.088-0.276,0.178-0.478c0.088-0.2,0.197-0.411,0.33-0.631
		c0.131-0.221,0.285-0.431,0.461-0.631c0.178-0.201,0.367-0.354,0.572-0.463c0.168-0.068,0.309-0.104,0.426-0.109
		s0.219,0.012,0.301,0.051c0.084,0.039,0.152,0.088,0.207,0.146c0.053,0.06,0.094,0.113,0.123,0.162
		c0.119,0.283,0.16,0.611,0.125,0.983c-0.033,0.372-0.127,0.741-0.277,1.107c-0.152,0.367-0.361,0.702-0.625,1.006
		c-0.264,0.303-0.572,0.523-0.924,0.66c-0.195,0.078-0.338,0.121-0.426,0.125c-0.088,0.006-0.176,0.008-0.264,0.008
		c0.02,0.146,0.023,0.244,0.014,0.293s-0.023,0.078-0.043,0.088c-0.041,0.039-0.104,0.062-0.191,0.066
		c-0.088,0.006-0.176-0.002-0.264-0.021c-0.059-0.764-0.113-1.502-0.162-2.216c-0.02-0.304-0.041-0.616-0.066-0.939
		c-0.023-0.323-0.049-0.636-0.072-0.939c-0.025-0.303-0.047-0.589-0.066-0.858c-0.02-0.269-0.035-0.507-0.045-0.712
		c-0.01-0.372-0.031-0.782-0.066-1.232c-0.033-0.45-0.064-0.868-0.094-1.255s-0.055-0.712-0.074-0.977
		C76.062,3.438,76.066,3.311,76.097,3.32z M78.562,8.853c-0.137,0.079-0.281,0.216-0.434,0.411c-0.15,0.196-0.293,0.434-0.426,0.712
		c-0.131,0.279-0.244,0.585-0.338,0.917c-0.092,0.333-0.148,0.666-0.168,0.998c0.195,0.05,0.396,0.022,0.602-0.08
		c0.205-0.104,0.396-0.247,0.572-0.434c0.176-0.186,0.336-0.4,0.477-0.646c0.143-0.244,0.256-0.486,0.338-0.727
		c0.084-0.239,0.131-0.465,0.141-0.675c0.01-0.211-0.029-0.379-0.117-0.507c-0.07-0.127-0.172-0.173-0.309-0.139
		S78.65,8.774,78.562,8.853z"/>
	<path fill="#001D36" d="M81.248,12.096c0.068,0.049,0.182-0.033,0.338-0.25c0.156-0.215,0.309-0.491,0.455-0.829
		s0.27-0.697,0.367-1.078c0.098-0.382,0.127-0.715,0.088-0.998c0-0.06,0.023-0.096,0.072-0.11s0.105-0.022,0.17-0.022
		c0.062,0,0.127,0.005,0.191,0.015c0.062,0.01,0.109,0.021,0.139,0.029c-0.02,0.216-0.047,0.487-0.08,0.814
		c-0.035,0.328-0.057,0.653-0.066,0.977s0.002,0.616,0.037,0.881c0.033,0.264,0.113,0.436,0.242,0.513
		c0.107,0.068,0.23,0.064,0.373-0.014c0.143-0.079,0.279-0.177,0.412-0.294c0.131-0.117,0.25-0.223,0.359-0.315
		c0.107-0.093,0.176-0.125,0.205-0.096c-0.039,0.167-0.123,0.328-0.25,0.484c-0.127,0.157-0.271,0.29-0.434,0.397
		c-0.16,0.107-0.332,0.184-0.514,0.227c-0.18,0.045-0.344,0.037-0.49-0.021c-0.059-0.01-0.105-0.066-0.141-0.168
		c-0.033-0.104-0.062-0.223-0.088-0.361c-0.023-0.137-0.043-0.283-0.059-0.44c-0.014-0.156-0.031-0.298-0.051-0.425
		c-0.078,0.156-0.166,0.332-0.264,0.528c-0.098,0.195-0.197,0.381-0.295,0.557c-0.098,0.176-0.189,0.328-0.277,0.455
		c-0.09,0.127-0.162,0.201-0.221,0.221c-0.195,0.078-0.348,0.096-0.455,0.051c-0.107-0.043-0.182-0.105-0.221-0.184
		c-0.059-0.029-0.1-0.129-0.125-0.301c-0.023-0.17-0.043-0.389-0.059-0.653c-0.014-0.265-0.021-0.562-0.021-0.896
		c0-0.332,0-0.673,0-1.02c0-0.348-0.006-0.69-0.016-1.027c-0.01-0.338-0.023-0.648-0.043-0.933c0.068,0,0.137,0.006,0.205,0.015
		c0.059,0.01,0.117,0.022,0.176,0.037s0.107,0.047,0.146,0.096c0.049,0.225,0.057,0.621,0.023,1.188
		c-0.035,0.567-0.062,1.253-0.082,2.055c0,0.029,0.004,0.086,0.008,0.169c0.006,0.083,0.016,0.174,0.029,0.271
		c0.016,0.098,0.039,0.19,0.074,0.278C81.142,12.008,81.189,12.067,81.248,12.096z"/>
	<path fill="#001D36" d="M85.623,8.589c0.029-0.01,0.111-0.037,0.248-0.081s0.25-0.051,0.338-0.021
		c0.283-0.01,0.502,0.063,0.654,0.22c0.15,0.156,0.162,0.46,0.035,0.91c-0.186,0.499-0.432,0.915-0.74,1.247
		c-0.309,0.333-0.674,0.651-1.094,0.954c0.098,0.255,0.244,0.396,0.439,0.425c0.197,0.029,0.402-0.002,0.617-0.096
		c0.215-0.092,0.426-0.217,0.631-0.374s0.371-0.293,0.5-0.411c0.205-0.176,0.369-0.325,0.49-0.447
		c0.123-0.122,0.252-0.271,0.389-0.447c0.031-0.02,0.047-0.018,0.053,0.007c0.004,0.024,0.002,0.062-0.008,0.11
		s-0.025,0.117-0.045,0.205c-0.029,0.068-0.059,0.13-0.088,0.184s-0.07,0.112-0.123,0.176c-0.055,0.064-0.125,0.14-0.213,0.228
		c-0.09,0.089-0.197,0.206-0.324,0.353c-0.146,0.137-0.289,0.271-0.426,0.404s-0.281,0.246-0.432,0.344
		c-0.152,0.1-0.318,0.168-0.5,0.207s-0.389,0.039-0.623,0c-0.195-0.068-0.354-0.143-0.471-0.221s-0.207-0.158-0.271-0.242
		c-0.062-0.084-0.109-0.158-0.139-0.227c-0.029-0.069-0.049-0.128-0.059-0.177c-0.049-0.195-0.068-0.46-0.059-0.792
		c0.01-0.333,0.107-0.764,0.293-1.292c0.127-0.273,0.264-0.506,0.412-0.697C85.255,8.846,85.425,8.696,85.623,8.589z M84.976,11.187
		c0.127-0.068,0.275-0.164,0.447-0.286s0.332-0.265,0.484-0.426s0.283-0.34,0.396-0.535c0.111-0.196,0.174-0.401,0.184-0.617
		c0.029-0.146,0.023-0.249-0.016-0.308c-0.02-0.029-0.039-0.044-0.059-0.044c-0.166-0.078-0.332-0.054-0.498,0.073
		s-0.318,0.308-0.455,0.543c-0.137,0.234-0.252,0.496-0.346,0.785C85.023,10.661,84.976,10.933,84.976,11.187z"/>
	<path fill="#001D36" d="M88.66,8.266c0,0.274-0.002,0.548-0.008,0.822c-0.004,0.273-0.01,0.538-0.014,0.792
		c-0.006,0.255-0.01,0.494-0.016,0.72c-0.004,0.225-0.012,0.426-0.021,0.602c0-0.039,0.021-0.135,0.066-0.286
		c0.043-0.151,0.104-0.325,0.184-0.521c0.078-0.195,0.162-0.403,0.256-0.623c0.094-0.221,0.193-0.416,0.301-0.587
		c0.107-0.172,0.219-0.306,0.33-0.404c0.113-0.098,0.219-0.127,0.316-0.088c0.215,0.098,0.367,0.24,0.455,0.426
		s0.15,0.398,0.189,0.639c0.039,0.239,0.078,0.506,0.119,0.8c0.037,0.293,0.127,0.602,0.264,0.925
		c0.059,0.146,0.145,0.254,0.256,0.322c0.113,0.068,0.221,0.117,0.324,0.146c0.102,0.03,0.186,0.047,0.248,0.051
		c0.064,0.006,0.086,0.023,0.066,0.053c-0.244,0.186-0.455,0.248-0.631,0.189s-0.326-0.188-0.447-0.388
		c-0.123-0.2-0.223-0.44-0.301-0.72c-0.078-0.278-0.15-0.548-0.213-0.807c-0.064-0.26-0.121-0.479-0.17-0.661
		c-0.049-0.181-0.102-0.271-0.16-0.271c-0.088,0.011-0.184,0.094-0.287,0.25c-0.102,0.156-0.207,0.353-0.314,0.587
		c-0.107,0.235-0.211,0.492-0.309,0.771c-0.098,0.279-0.189,0.541-0.271,0.785c-0.084,0.246-0.15,0.455-0.199,0.63
		c-0.049,0.178-0.078,0.285-0.088,0.324c-0.146,0-0.236,0.004-0.271,0.014c-0.033,0.01-0.09-0.039-0.168-0.146
		c0.049-0.861,0.066-1.675,0.051-2.444C88.183,9.398,88.16,8.73,88.13,8.163c0-0.088,0.023-0.132,0.066-0.132
		c0.045,0,0.094,0.02,0.146,0.059c0.055,0.039,0.111,0.078,0.17,0.117S88.621,8.266,88.66,8.266z"/>
	<path fill="#001D36" d="M98.816,11.143c0.02,0.02,0.016,0.054-0.008,0.103c-0.025,0.049-0.059,0.103-0.104,0.161
		c-0.043,0.06-0.088,0.115-0.131,0.169c-0.045,0.054-0.076,0.091-0.096,0.11c-0.234,0.264-0.445,0.491-0.631,0.682
		s-0.338,0.355-0.455,0.492c0,0.01-0.002,0.066-0.008,0.168c-0.004,0.104-0.008,0.16-0.008,0.17
		c-0.02,0.332-0.025,0.668-0.021,1.004c0.006,0.338-0.018,0.678-0.066,1.021c-0.059,0.391-0.119,0.707-0.184,0.945
		c-0.062,0.24-0.129,0.436-0.197,0.588s-0.139,0.279-0.213,0.381c-0.074,0.104-0.154,0.219-0.242,0.346
		c-0.078,0.107-0.166,0.201-0.264,0.279s-0.23,0.17-0.396,0.277c-0.225,0.139-0.461,0.24-0.705,0.309s-0.469,0.082-0.676,0.037
		c-0.205-0.045-0.379-0.154-0.52-0.33c-0.143-0.176-0.223-0.439-0.242-0.793c-0.02-0.391,0.049-0.777,0.205-1.158
		c0.156-0.383,0.342-0.73,0.557-1.043c0.217-0.312,0.426-0.578,0.633-0.793c0.205-0.215,0.346-0.361,0.424-0.439
		c0.129-0.137,0.242-0.256,0.346-0.354s0.207-0.188,0.316-0.271c0.107-0.082,0.223-0.174,0.344-0.271
		c0.123-0.098,0.268-0.215,0.434-0.352c0.039-0.234,0.062-0.482,0.072-0.741c0.01-0.26,0.01-0.526,0-0.8
		c-0.176,0.361-0.363,0.646-0.564,0.851c-0.201,0.206-0.381,0.36-0.543,0.463c-0.162,0.102-0.293,0.166-0.396,0.189
		c-0.102,0.025-0.145,0.037-0.125,0.037c-0.186,0.029-0.334,0.037-0.447,0.021c-0.111-0.014-0.201-0.043-0.264-0.088
		c-0.064-0.043-0.113-0.096-0.146-0.154c-0.035-0.059-0.062-0.117-0.082-0.176c-0.049-0.254-0.045-0.515,0.008-0.785
		c0.055-0.27,0.135-0.526,0.242-0.771s0.225-0.47,0.354-0.675c0.127-0.206,0.244-0.372,0.352-0.499
		c0.02-0.02,0.066-0.071,0.139-0.154c0.074-0.083,0.17-0.177,0.287-0.279s0.262-0.208,0.432-0.315
		c0.172-0.107,0.371-0.205,0.596-0.293c0.225-0.049,0.455-0.071,0.689-0.066s0.426,0.062,0.572,0.169
		c-0.078,0.029-0.197,0.065-0.359,0.109c-0.162,0.045-0.268,0.076-0.316,0.096V8.75c0,0.029,0.01,0.044,0.029,0.044
		C97.269,8.755,97.011,8.823,96.658,9c-0.352,0.176-0.734,0.514-1.145,1.013c-0.186,0.264-0.328,0.501-0.426,0.712
		c-0.098,0.21-0.168,0.391-0.213,0.543c-0.043,0.151-0.066,0.281-0.066,0.389s0.006,0.19,0.016,0.249
		c0.01,0.04,0.043,0.074,0.102,0.103c0.061,0.029,0.133,0.035,0.221,0.016c0.254-0.06,0.492-0.189,0.713-0.39
		c0.219-0.2,0.42-0.428,0.602-0.683c0.18-0.254,0.334-0.503,0.461-0.748c0.127-0.244,0.221-0.44,0.279-0.587
		c0.098-0.225,0.15-0.433,0.154-0.624c0.006-0.19-0.002-0.286-0.021-0.286c0.029,0,0.049,0,0.059,0s0.012,0.003,0.008,0.008
		c-0.006,0.005-0.037,0.012-0.096,0.021c0.02-0.02,0.039-0.031,0.059-0.036s0.039-0.013,0.059-0.022
		c-0.01-0.01-0.008-0.021,0.008-0.037c0.014-0.015,0.031-0.021,0.051-0.021c0-0.02,0.023-0.039,0.074-0.059l0.088-0.029l0.043-0.029
		c0.039-0.02,0.064-0.034,0.074-0.044s0.021-0.015,0.037-0.015c0.014,0,0.041,0.007,0.08,0.021s0.107,0.037,0.205,0.066
		c-0.088,0.234-0.164,0.521-0.227,0.858c-0.064,0.338-0.121,0.678-0.17,1.02c-0.049,0.343-0.09,0.668-0.125,0.977
		c-0.033,0.308-0.066,0.55-0.096,0.727c0.078-0.078,0.193-0.171,0.346-0.28c0.152-0.107,0.301-0.215,0.447-0.322
		C98.433,11.392,98.619,11.27,98.816,11.143z M96.966,13.682c0.029-0.227,0.023-0.363-0.016-0.412
		c-0.02-0.029-0.043-0.039-0.072-0.029c-0.264,0.215-0.48,0.396-0.646,0.543s-0.279,0.244-0.338,0.295
		c-0.469,0.439-0.818,0.828-1.049,1.166s-0.385,0.648-0.463,0.932c-0.107,0.312-0.168,0.59-0.182,0.83
		c-0.016,0.238,0.045,0.471,0.182,0.697c0.246,0.186,0.512,0.221,0.801,0.109c0.289-0.113,0.555-0.287,0.801-0.521
		c0.283-0.322,0.514-0.775,0.689-1.357S96.947,14.6,96.966,13.682z"/>
	<path fill="#001D36" d="M99.798,12.096c0.068,0.049,0.18-0.033,0.336-0.25c0.158-0.215,0.309-0.491,0.455-0.829
		c0.148-0.338,0.27-0.697,0.367-1.078c0.098-0.382,0.127-0.715,0.088-0.998c0-0.06,0.025-0.096,0.074-0.11s0.105-0.022,0.168-0.022
		c0.064,0,0.127,0.005,0.191,0.015s0.109,0.021,0.139,0.029c-0.02,0.216-0.045,0.487-0.08,0.814
		c-0.035,0.328-0.057,0.653-0.066,0.977s0.002,0.616,0.037,0.881c0.035,0.264,0.115,0.436,0.242,0.513
		c0.107,0.068,0.232,0.064,0.375-0.014c0.141-0.079,0.277-0.177,0.41-0.294s0.252-0.223,0.359-0.315s0.176-0.125,0.205-0.096
		c-0.039,0.167-0.121,0.328-0.248,0.484c-0.129,0.157-0.271,0.29-0.434,0.397s-0.332,0.184-0.514,0.227
		c-0.182,0.045-0.346,0.037-0.492-0.021c-0.059-0.01-0.105-0.066-0.139-0.168c-0.035-0.104-0.064-0.223-0.088-0.361
		c-0.025-0.137-0.045-0.283-0.059-0.44c-0.016-0.156-0.033-0.298-0.053-0.425c-0.078,0.156-0.166,0.332-0.264,0.528
		c-0.098,0.195-0.195,0.381-0.293,0.557c-0.098,0.176-0.191,0.328-0.279,0.455s-0.162,0.201-0.221,0.221
		c-0.195,0.078-0.348,0.096-0.455,0.051c-0.107-0.043-0.18-0.105-0.219-0.184c-0.059-0.029-0.102-0.129-0.125-0.301
		c-0.025-0.17-0.045-0.389-0.059-0.653c-0.016-0.265-0.021-0.562-0.021-0.896c0-0.332,0-0.673,0-1.02
		c0-0.348-0.006-0.69-0.016-1.027c-0.01-0.338-0.025-0.648-0.045-0.933c0.068,0,0.139,0.006,0.207,0.015
		c0.059,0.01,0.117,0.022,0.176,0.037s0.107,0.047,0.146,0.096c0.049,0.225,0.057,0.621,0.021,1.188
		c-0.033,0.567-0.061,1.253-0.08,2.055c0,0.029,0.002,0.086,0.008,0.169c0.004,0.083,0.014,0.174,0.029,0.271
		c0.014,0.098,0.039,0.19,0.072,0.278C99.693,12.008,99.74,12.067,99.798,12.096z"/>
	<path fill="#001D36" d="M104.464,8.119c0.244,0.039,0.449,0.093,0.609,0.161c0.162,0.068,0.289,0.145,0.383,0.228
		c0.092,0.083,0.166,0.169,0.219,0.257c0.055,0.088,0.105,0.172,0.154,0.25c-0.01,0.039-0.057,0.034-0.139-0.015
		c-0.084-0.049-0.164-0.098-0.242-0.147c-0.215-0.137-0.475-0.22-0.777-0.249c-0.305-0.029-0.586-0.013-0.846,0.052
		c-0.258,0.063-0.467,0.174-0.623,0.33s-0.195,0.347-0.117,0.572c0.078,0.225,0.217,0.421,0.418,0.587s0.424,0.315,0.668,0.447
		c0.244,0.133,0.488,0.252,0.734,0.359c0.244,0.108,0.445,0.216,0.602,0.323c0.195-0.107,0.361-0.198,0.498-0.271
		s0.26-0.142,0.367-0.205s0.219-0.122,0.33-0.177c0.113-0.054,0.242-0.114,0.389-0.184c0.02-0.009,0.037-0.015,0.053-0.015
		c0.014,0,0.014,0.013,0,0.037c-0.016,0.024-0.055,0.063-0.117,0.117c-0.064,0.054-0.164,0.13-0.301,0.228
		c-0.07,0.049-0.197,0.132-0.383,0.25c-0.186,0.117-0.387,0.244-0.602,0.381c0.117,0.108,0.211,0.221,0.279,0.338
		c0.059,0.107,0.1,0.223,0.125,0.344c0.023,0.123,0.002,0.248-0.066,0.375c-0.195,0.312-0.416,0.559-0.66,0.734
		c-0.246,0.176-0.471,0.297-0.676,0.367c-0.137,0.049-0.289,0.053-0.455,0.014s-0.299-0.117-0.396-0.234
		c-0.107-0.156-0.135-0.316-0.08-0.477c0.053-0.162,0.145-0.318,0.271-0.471c0.127-0.15,0.273-0.295,0.439-0.432
		c0.168-0.138,0.314-0.26,0.441-0.368c-0.088-0.098-0.26-0.218-0.514-0.359c-0.256-0.143-0.516-0.299-0.785-0.47
		s-0.512-0.354-0.727-0.551c-0.215-0.195-0.332-0.391-0.354-0.587c-0.037-0.215-0.012-0.423,0.082-0.624
		c0.092-0.2,0.229-0.376,0.41-0.528c0.182-0.151,0.393-0.264,0.631-0.337C103.949,8.097,104.201,8.08,104.464,8.119z
		 M104.333,13.153c0.107,0.049,0.229,0.049,0.367,0c0.137-0.049,0.266-0.119,0.389-0.213c0.121-0.092,0.229-0.195,0.322-0.309
		c0.094-0.111,0.154-0.213,0.184-0.301c0.029-0.078,0.002-0.162-0.08-0.256c-0.084-0.093-0.17-0.169-0.258-0.228
		c-0.107,0.079-0.23,0.179-0.367,0.3c-0.137,0.123-0.256,0.248-0.359,0.375c-0.102,0.127-0.178,0.25-0.227,0.367
		S104.265,13.094,104.333,13.153z"/>
	<path fill="#001D36" d="M108.634,8.368c0.42-0.029,0.834-0.061,1.238-0.095c0.406-0.034,0.83-0.071,1.27-0.11
		c0.1,0.01,0.162,0.062,0.191,0.154s-0.01,0.149-0.117,0.169c-0.361,0.039-0.777,0.093-1.248,0.161
		c-0.469,0.068-0.914,0.156-1.334,0.265c0.02,0.303,0.029,0.613,0.029,0.932s0.006,0.631,0.021,0.939
		c0.014,0.308,0.043,0.606,0.088,0.895c0.043,0.289,0.115,0.555,0.213,0.799c0.137,0.168,0.273,0.266,0.41,0.295
		s0.268,0.021,0.389-0.021c0.123-0.045,0.236-0.113,0.338-0.207c0.104-0.092,0.193-0.184,0.271-0.271
		c0.068-0.068,0.125-0.068,0.17,0c0.043,0.068,0.002,0.172-0.125,0.309c-0.059,0.068-0.133,0.143-0.221,0.221
		s-0.193,0.145-0.314,0.197c-0.123,0.055-0.26,0.088-0.412,0.104c-0.152,0.014-0.314-0.002-0.492-0.051
		c-0.225-0.061-0.391-0.24-0.498-0.543c-0.107-0.305-0.189-0.659-0.242-1.065c-0.055-0.406-0.09-0.829-0.109-1.27
		c-0.021-0.44-0.045-0.837-0.074-1.188c-0.432,0.039-0.746,0.073-0.947,0.103c-0.199,0.029-0.344,0.049-0.432,0.059
		s-0.148,0.005-0.178-0.015s-0.082-0.063-0.16-0.132c0.01-0.049,0.012-0.096,0.008-0.14c-0.006-0.044-0.006-0.081,0-0.11
		c0.004-0.029,0.023-0.059,0.059-0.088c0.033-0.029,0.1-0.054,0.197-0.073c0.146-0.039,0.359-0.062,0.639-0.066
		s0.551-0.026,0.814-0.065c-0.01-0.313-0.02-0.558-0.029-0.734c-0.01-0.176-0.02-0.33-0.029-0.462S108,6.999,107.996,6.872
		c-0.006-0.128-0.008-0.294-0.008-0.499c0-0.049,0.027-0.086,0.08-0.11c0.055-0.024,0.115-0.039,0.184-0.044
		s0.133,0.005,0.191,0.029s0.098,0.062,0.117,0.11c0.029,0.088,0.049,0.218,0.059,0.389s0.018,0.352,0.021,0.543
		c0.006,0.19,0.008,0.384,0.008,0.579C108.648,8.065,108.642,8.231,108.634,8.368z"/>
	<path fill="#001D36" d="M111.246,8.339c0.186,0.01,0.391,0.037,0.615,0.081c0.227,0.044,0.445,0.103,0.662,0.176
		c0.215,0.074,0.412,0.157,0.594,0.25s0.33,0.198,0.447,0.315c0.117,0.107,0.186,0.271,0.205,0.491
		c0.02,0.221,0.006,0.463-0.043,0.727c-0.049,0.265-0.125,0.536-0.229,0.814c-0.102,0.279-0.217,0.531-0.344,0.756
		c-0.127,0.225-0.266,0.411-0.412,0.559c-0.146,0.146-0.283,0.219-0.41,0.219c-0.215,0-0.396-0.051-0.543-0.154
		c-0.146-0.102-0.264-0.227-0.352-0.373c-0.09-0.146-0.154-0.301-0.199-0.462c-0.043-0.162-0.07-0.302-0.08-0.419
		c-0.029-0.519-0.035-0.979-0.016-1.379c0.02-0.401,0.055-0.734,0.104-0.998c-0.029-0.049-0.059-0.094-0.088-0.133
		s-0.059-0.075-0.088-0.109s-0.064-0.066-0.104-0.096c0.039-0.02,0.078-0.049,0.117-0.088
		C111.162,8.457,111.216,8.398,111.246,8.339z M111.773,11.832c0.029,0.039,0.068,0.081,0.117,0.125
		c0.049,0.043,0.111,0.079,0.184,0.102c0.074,0.025,0.15,0.027,0.229,0.008s0.162-0.072,0.25-0.162
		c0.234-0.244,0.41-0.496,0.527-0.756c0.117-0.259,0.193-0.504,0.229-0.733c0.033-0.229,0.029-0.433-0.016-0.609
		c-0.043-0.176-0.115-0.303-0.213-0.381c-0.078-0.05-0.145-0.091-0.197-0.125c-0.055-0.034-0.123-0.066-0.207-0.096
		c-0.082-0.029-0.188-0.061-0.314-0.096c-0.127-0.034-0.293-0.08-0.5-0.139c-0.098,0.312-0.166,0.626-0.205,0.938
		c-0.039,0.313-0.057,0.6-0.051,0.859c0.004,0.259,0.023,0.484,0.059,0.675C111.697,11.634,111.734,11.764,111.773,11.832z"/>
</g>
</svg>
