<?xml version="1.0" encoding="utf-8"?>
<!-- Generator: Adobe Illustrator 16.0.0, SVG Export Plug-In . SVG Version: 6.00 Build 0)  -->
<!DOCTYPE svg PUBLIC "-//W3C//DTD SVG 1.1//EN" "http://www.w3.org/Graphics/SVG/1.1/DTD/svg11.dtd">
<svg version="1.1" id="Layer_1" xmlns="http://www.w3.org/2000/svg" xmlns:xlink="http://www.w3.org/1999/xlink" x="0px" y="0px"
	 width="77.273px" height="77.273px" viewBox="0 0 77.273 77.273" enable-background="new 0 0 77.273 77.273" xml:space="preserve">
<g>
	<path fill="#694C39" d="M18.358,49.147c0,0,1.946,3.92,0,8.686c-1.17,2.868,2.454,1.058,3.511,0c0,0,1.055,3.388-1.058,6.073
		c-2.114,2.688,3.979,1.823,5.84-3.71c0,0,1.026,4.733-2.406,8.208c-3.433,3.473,14.394,2.116,14.394,2.116V47.764L18.358,49.147z"
		/>
	<path fill="#553D2B" d="M59.161,49.147c0,0-1.947,3.92,0,8.686c1.173,2.868-2.451,1.058-3.509,0c0,0-1.057,3.388,1.058,6.073
		c2.113,2.688-3.979,1.823-5.842-3.71c0,0-1.026,4.733,2.406,8.208c3.435,3.473-14.393,2.116-14.393,2.116V47.764L59.161,49.147z"/>
	<g>
		<rect x="33.85" y="58.449" fill="#FDCD9B" width="10.068" height="11.275"/>
		<path fill="#FCBC84" d="M33.85,59.773c0,0,4.234,2.699,10.068,2.073v-3.398H33.85V59.773z"/>
		<ellipse fill="#FCBC84" cx="19.332" cy="40.962" rx="4.913" ry="5.604"/>
		<ellipse fill="#FCBC84" cx="58.435" cy="40.962" rx="4.912" ry="5.604"/>
		<path fill="#FDCD9B" d="M58.416,30.255c0-8.254-6.039-14.295-19.531-14.295S19.353,22,19.353,30.255
			c0,8.256-1.409,30.005,19.531,30.005C59.826,60.26,58.416,38.51,58.416,30.255z"/>
		<g>
			<g>
				<ellipse fill="#3B261A" cx="29.371" cy="39.62" rx="2.114" ry="2.317"/>
				<circle fill="#FFFFFF" cx="28.448" cy="38.597" r="0.632"/>
			</g>
			<path fill="#694C39" d="M25.987,33.879c1.002,0.499,2.606-1.698,6.28,0.215c0.669,0.348,1.07-2.985-2.87-2.985
				C25.987,31.11,25.383,33.581,25.987,33.879z"/>
			<g>
				<ellipse fill="#3B261A" cx="48.659" cy="39.62" rx="2.115" ry="2.317"/>
				<circle fill="#FFFFFF" cx="47.737" cy="38.597" r="0.632"/>
			</g>
			<path fill="#694C39" d="M51.781,33.879c-1.001,0.499-2.605-1.698-6.279,0.215c-0.671,0.348-1.069-2.985,2.869-2.985
				C51.781,31.11,52.385,33.581,51.781,33.879z"/>
		</g>
		<path fill="#FCBC84" d="M38.883,47.764c-2.089,0-3.349-1.559-3.349-0.803c0,0.753,0.604,2.186,3.349,2.186
			c2.744,0,3.348-1.435,3.348-2.186C42.233,46.204,40.972,47.764,38.883,47.764z"/>
		<path fill="#FCBC84" d="M38.883,54.708c-0.724,0-1.159-0.538-1.159-0.278c0,0.259,0.209,0.759,1.159,0.759
			c0.949,0,1.158-0.499,1.158-0.759C40.041,54.169,39.607,54.708,38.883,54.708z"/>
		<path fill="#F7955F" d="M38.883,52.783c-3.312,0-5.306-1.347-5.306-1.005c0,0.343,0.958,1.687,5.306,1.687
			c4.349,0,5.308-1.344,5.308-1.687C44.191,51.436,42.196,52.783,38.883,52.783z"/>
	</g>
	<path fill="#C2B498" d="M38.883,62.98v12.686H14.419C14.419,70.529,27.304,62.98,38.883,62.98z"/>
	<path fill="#C2B498" d="M38.883,62.98v12.686h24.464C63.347,70.529,50.464,62.98,38.883,62.98z"/>
	<path fill="#694C39" d="M13.713,40.962c-2.531-12.457,0.604-21.943-0.604-23.3c-1.208-1.36-3.171,0.454-3.322-0.604
		c-0.15-1.058,3.173-2.717,4.633-4.379c1.459-1.661,1.105-6.796,2.466-5.287c1.36,1.51,0,4.983,0,4.983
		c15.706-21.595,41.682-5.285,44.553,2.266c2.867,7.552,7.549,12.835,5.586,12.835c-2.3,0-3.677-3.171-3.677-3.171
		s2.167,6.042,1.109,14.925c-1.058,8.884-10.57,14.266-9.15,11.917c2.906-4.804,0.694-13.845,0.694-13.845
		c-0.151,0.917-1.664,2.256-1.712,0.663c-0.25-8.093-4.934-10.491-4.934-10.491s1.66,2.57-0.696,2.418
		c-7.066-0.453-11.69-3.323-11.69-3.323s1.661,3.323,0,3.323c-5.597,0-11.189-3.323-11.189-3.323S22.97,32.307,23.046,37.3
		c0.028,1.803-1.783-0.159-1.783-1.519c0,0-1.98,10.642,1.488,15.915C24.275,54.012,15.31,48.82,13.713,40.962z"/>
	<path fill="#9D937C" d="M30.471,64.162l8.412,11.504v-6.345l-3.779-6.087C33.546,63.435,31.99,63.752,30.471,64.162z"/>
	<path fill="#9D937C" d="M47.297,64.162l-8.414,11.504v-6.345l3.781-6.087C44.221,63.435,45.777,63.752,47.297,64.162z"/>
	<path fill="#FDCD9B" d="M33.85,63.418l5.033,7.779l5.035-7.779C43.919,63.418,38.696,61.516,33.85,63.418z"/>
</g>
</svg>
