<?xml version="1.0" encoding="utf-8"?>
<!-- Generator: Adobe Illustrator 16.0.0, SVG Export Plug-In . SVG Version: 6.00 Build 0)  -->
<!DOCTYPE svg PUBLIC "-//W3C//DTD SVG 1.1//EN" "http://www.w3.org/Graphics/SVG/1.1/DTD/svg11.dtd">
<svg version="1.1" id="Layer_1" xmlns="http://www.w3.org/2000/svg" xmlns:xlink="http://www.w3.org/1999/xlink" x="0px" y="0px"
	 width="77.273px" height="77.273px" viewBox="0 0 77.273 77.273" enable-background="new 0 0 77.273 77.273" xml:space="preserve">
<g>
	<g>
		<g>
			<defs>
				<circle id="SVGID_1_" cx="38.636" cy="38.636" r="36.331"/>
			</defs>
			<defs>
				<circle id="SVGID_2_" cx="38.635" cy="40.133" r="34.834"/>
			</defs>
			<clipPath id="SVGID_3_">
				<use xlink:href="#SVGID_1_"  overflow="visible"/>
			</clipPath>
			<clipPath id="SVGID_4_" clip-path="url(#SVGID_3_)">
				<use xlink:href="#SVGID_2_"  overflow="visible"/>
			</clipPath>
			<g clip-path="url(#SVGID_4_)">
				<path fill="#F7BF7C" d="M33.559,47.802c0,0,1.119,6.753-3.33,8.586C25.78,58.22,18.2,58.207,17.293,62.395l-0.604,6.741h43.717
					c0,0-1.18-8.735-3.988-10.062L45.98,56.683c0,0-3.83-0.383-3.283-7.953L33.559,47.802z"/>
				
					<image overflow="visible" width="45" height="17" xlink:href="F58DB3FD2D26AE89.png"  transform="matrix(1 0 0 1 16.1365 59.1365)">
				</image>
				<path opacity="0.1" fill="#603813" d="M33.684,49.425c0,0,6.969,6.966,11.507,6.72c0,0-2.726-1.066-2.539-6.491L33.684,49.425z"
					/>
				<g>
					
						<linearGradient id="SVGID_5_" gradientUnits="userSpaceOnUse" x1="51.9431" y1="158.3884" x2="60.6606" y2="143.2892" gradientTransform="matrix(0.859 -0.5119 0.5119 0.859 -71.0447 -56.8108)">
						<stop  offset="0" style="stop-color:#FF4A3F"/>
						<stop  offset="1" style="stop-color:#BF0000"/>
					</linearGradient>
					<path fill="url(#SVGID_5_)" d="M47.931,36.174c0,0-5.854,9.774,3.426,13.937c0,0,0.131,1.154-1.559,2.161
						c0,0,6.231,2.18,7.339-3.466c0,0,0.719,1.555,2.533-0.312c0,0-2.171,0.275-1.547-2.184c0.023-0.09,0.049-0.183,0.08-0.28
						c0.863-2.757,4.581,3.027,2.932,4.921c0,0,4.815-5.132-1.169-11.688C53.979,32.708,47.931,36.174,47.931,36.174z"/>
					
						<linearGradient id="SVGID_6_" gradientUnits="userSpaceOnUse" x1="-15.5129" y1="-18.0813" x2="-6.7955" y2="-33.1803" gradientTransform="matrix(0.96 0.2802 -0.2802 0.96 25.8807 72.5962)">
						<stop  offset="0" style="stop-color:#FF4A3F"/>
						<stop  offset="1" style="stop-color:#BF0000"/>
					</linearGradient>
					<path fill="url(#SVGID_6_)" d="M23.542,34.742c0,0-11.144,2.372-7.87,12.002c0,0-0.756,0.882-2.645,0.332
						c0,0,2.649,6.046,7.537,3.009c0,0-0.647,1.588,1.954,1.645c0,0-1.68-1.403,0.543-2.621c0.083-0.044,0.169-0.087,0.26-0.134
						c2.608-1.243,0.908,5.417-1.604,5.499c0,0,7.039,0.031,7.762-8.816C30.199,36.808,23.542,34.742,23.542,34.742z"/>
					<path fill="#FFE2B5" d="M54.314,29.775c0,0,1.952-1.677,2.186,0.794c0.2,2.09-3.672,5.181-3.672,5.181L54.314,29.775z"/>
					<path fill="#F9CC91" d="M22.689,30.682c0,0-1.95-1.679-2.186,0.794c-0.199,2.089,3.839,5.166,3.839,5.166L22.689,30.682z"/>
					
						<image overflow="visible" width="34" height="40" xlink:href="F58DB3FD2D26AE8B.png"  transform="matrix(1 0 0 1 21.1365 12.1365)">
					</image>
					<path fill="none" stroke="#F4AE62" stroke-width="0.4616" stroke-miterlimit="10" d="M36.846,38.523
						c0,0-0.396,1.118,0.713,1.038c0,0,0.793,0.8,1.981,0.004c0,0,1.109,0.061,0.792-1.042"/>
					<g>
						<path fill="#FFFFFF" d="M25.844,31.224c0,0,6.585-2.765,9.439,1.75C35.284,32.974,29.834,38.276,25.844,31.224z"/>
						
							<image overflow="visible" width="5" height="5" xlink:href="F58DB3FD2D26AE8E.png"  transform="matrix(1 0 0 1 28.1365 30.1365)">
						</image>
						
							<image overflow="visible" width="3" height="3" xlink:href="F58DB3FD2D26AE8F.png"  transform="matrix(1 0 0 1 29.1365 31.1365)">
						</image>
						<g>
							<path d="M25.805,31.13c0,0,0.6-0.285,1.549-0.565c0.949-0.273,2.266-0.545,3.629-0.476c0.338,0.03,0.682,0.058,1.015,0.122
								c0.329,0.087,0.667,0.135,0.964,0.282c0.294,0.146,0.595,0.256,0.828,0.457c0.241,0.183,0.483,0.334,0.646,0.544
								c0.178,0.192,0.327,0.379,0.46,0.538c0.11,0.18,0.2,0.338,0.267,0.473c0.141,0.263,0.207,0.416,0.207,0.416
								c0.022,0.053-0.001,0.113-0.054,0.136c-0.036,0.016-0.077,0.009-0.105-0.015l-0.013-0.01c0,0-0.132-0.106-0.337-0.297
								c-0.106-0.093-0.227-0.209-0.358-0.345c-0.154-0.115-0.335-0.231-0.514-0.373c-0.17-0.154-0.404-0.251-0.623-0.388
								c-0.216-0.143-0.472-0.244-0.731-0.355c-0.244-0.147-0.541-0.199-0.819-0.316c-0.288-0.09-0.594-0.149-0.899-0.212
								c-0.311-0.025-0.622-0.089-0.934-0.082c-0.312-0.012-0.62-0.013-0.918,0.011c-0.599,0.026-1.154,0.124-1.628,0.216
								c-0.948,0.201-1.552,0.431-1.552,0.431c-0.053,0.021-0.113-0.006-0.133-0.06C25.732,31.209,25.757,31.152,25.805,31.13z"/>
						</g>
					</g>
					<g>
						<path fill="#FFFFFF" d="M51.299,30.874c0,0-6.623-2.67-9.412,1.885C41.886,32.759,47.411,37.981,51.299,30.874z"/>
						
							<image overflow="visible" width="5" height="5" xlink:href="F58DB3FD2D26AE8A.png"  transform="matrix(1 0 0 1 44.1365 30.1365)">
						</image>
						
							<image overflow="visible" width="3" height="3" xlink:href="F58DB3FD2D26AE85.png"  transform="matrix(1 0 0 1 45.1365 31.1365)">
						</image>
						<g>
							<path d="M51.26,30.969c0,0-0.606-0.221-1.558-0.409c-0.475-0.085-1.032-0.176-1.631-0.193
								c-0.299-0.02-0.606-0.015-0.918,0.002c-0.312-0.003-0.622,0.065-0.933,0.095c-0.305,0.068-0.609,0.131-0.896,0.225
								c-0.276,0.122-0.572,0.178-0.814,0.328c-0.258,0.116-0.512,0.22-0.726,0.366c-0.217,0.14-0.449,0.241-0.616,0.397
								c-0.177,0.145-0.356,0.264-0.509,0.38c-0.13,0.138-0.248,0.256-0.354,0.35c-0.202,0.194-0.333,0.302-0.333,0.302
								l-0.013,0.011c-0.044,0.037-0.109,0.03-0.146-0.014c-0.025-0.03-0.03-0.071-0.016-0.105c0,0,0.063-0.154,0.2-0.418
								c0.064-0.135,0.152-0.295,0.26-0.477c0.131-0.161,0.277-0.35,0.453-0.544c0.16-0.213,0.399-0.368,0.638-0.553
								c0.229-0.204,0.528-0.319,0.821-0.469c0.295-0.151,0.633-0.204,0.96-0.295c0.332-0.069,0.676-0.102,1.013-0.136
								c1.362-0.088,2.683,0.164,3.636,0.424c0.952,0.268,1.557,0.543,1.557,0.543c0.052,0.023,0.076,0.083,0.054,0.136
								C51.369,30.963,51.31,30.986,51.26,30.969z"/>
						</g>
					</g>
					
						<linearGradient id="SVGID_7_" gradientUnits="userSpaceOnUse" x1="-4.8376" y1="87.4802" x2="5.8494" y2="87.4802" gradientTransform="matrix(0.9772 -0.2121 0.2121 0.9772 11.1255 -57.0755)">
						<stop  offset="0" style="stop-color:#FF4A3F"/>
						<stop  offset="1" style="stop-color:#BF0000"/>
					</linearGradient>
					<path fill="url(#SVGID_7_)" d="M25.015,29.728c0,0,1.927-2.586,2.983-2.791c1.774-0.345,7.701,1.635,7.701,1.635l-1.359,0.663
						l-6.103-1.197C28.238,28.038,25.877,29.252,25.015,29.728z"/>
					
						<linearGradient id="SVGID_8_" gradientUnits="userSpaceOnUse" x1="61.1501" y1="-42.7102" x2="72.0593" y2="-42.7102" gradientTransform="matrix(0.9666 0.2565 -0.2565 0.9666 -28.5426 52.5036)">
						<stop  offset="0" style="stop-color:#FF4A3F"/>
						<stop  offset="1" style="stop-color:#BF0000"/>
					</linearGradient>
					<path fill="url(#SVGID_8_)" d="M51.986,29.997c0,0-1.845-2.728-2.914-2.985c-1.792-0.435-7.929,1.31-7.929,1.31l1.355,0.739
						l6.279-0.938C48.778,28.123,51.13,29.47,51.986,29.997z"/>
					
						<linearGradient id="SVGID_9_" gradientUnits="userSpaceOnUse" x1="-449.9705" y1="40.7537" x2="-432.8833" y2="11.1578" gradientTransform="matrix(-1 0 0 1 -403.1489 0)">
						<stop  offset="0" style="stop-color:#FF4A3F"/>
						<stop  offset="1" style="stop-color:#BF0000"/>
					</linearGradient>
					<path fill="url(#SVGID_9_)" d="M21.851,26.894c1.661,9.82,3.993,11.742,3.993,11.742c-2.17-3.34-2.575-9.005-2.575-9.005
						c0.108-3.522,2.68-8.253,4.037-9.828c2.256,3.223,13.218,9.675,15.768,8.096c0,0,0.972,0.854,2.732-0.545
						c0,0-4.676-1.153-4.917-3.218c0,0,6.312,5.463,10.804,3.52c0,0-1.463-0.229,1.671,0.456c0.812,6.417-1.228,7.908-2.686,10.411
						c0,0,3.07-1.298,4.731-11.117l0,0c0,0-0.323-5.514-0.323-5.829c0-0.316-7.416-22.967-27.188-9.216c0,0-1.497,0.74-3.699,3.554
						C20.52,21.808,21.851,26.894,21.851,26.894z M48.779,24.379c0,0,2.475,2.373,4.742,3.016c-0.011,0.056-0.028,0.133-0.051,0.237
						C51.701,26.825,48.863,25.38,48.779,24.379z"/>
					<path fill-rule="evenodd" clip-rule="evenodd" d="M54.606,29.377c-0.003-0.08-0.016-0.159-0.022-0.239
						c-0.025-0.311-0.099-0.376-0.474-0.401c-0.48-0.032-0.965-0.048-1.446-0.089c-0.69-0.061-1.378-0.149-2.069-0.203
						c-0.283-0.023-0.566-0.044-0.849-0.065c-0.499-0.036-0.997-0.069-1.494-0.103c-0.247-0.019-0.495-0.034-0.741-0.052
						c-0.613-0.044-1.208,0.012-1.814,0.072c-0.403,0.038-0.807,0.065-1.208,0.112c-0.554,0.067-1.111,0.152-1.652,0.25
						c-0.673,0.123-1.344,0.253-2.013,0.388c-0.779,0.156-1.564,0.201-2.355,0.205c-0.78-0.004-1.555-0.051-2.32-0.205
						c-0.671-0.135-1.34-0.265-2.015-0.388c-0.539-0.098-1.099-0.183-1.651-0.25c-0.4-0.047-0.805-0.074-1.206-0.112
						c-0.608-0.061-1.204-0.116-1.815-0.072c-0.248,0.018-0.494,0.033-0.741,0.052c-0.5,0.033-0.996,0.066-1.494,0.103
						c-0.284,0.021-0.566,0.042-0.851,0.065c-0.691,0.054-1.377,0.143-2.068,0.203c-0.48,0.041-0.965,0.057-1.447,0.089
						c-0.373,0.025-0.446,0.091-0.474,0.401c-0.007,0.08-0.018,0.159-0.021,0.239c-0.012,0.338-0.023,0.676-0.027,1.015
						c-0.001,0.145,0.039,0.274,0.232,0.321c0.475,0.117,0.723,0.393,0.801,0.798c0.095,0.487,0.206,0.972,0.306,1.459
						c0.157,0.76,0.373,1.509,0.727,2.225c0.303,0.614,0.71,1.175,1.421,1.503c0.469,0.218,0.969,0.404,1.479,0.536
						c0.865,0.223,1.761,0.318,2.667,0.276c2.538-0.121,4.835-1.129,6.024-3.077c0.479-0.786,0.849-1.613,1.19-2.449
						c0.429-1.055,2.159-1.085,2.602,0c0.34,0.836,0.709,1.663,1.188,2.449c1.189,1.948,3.488,2.956,6.024,3.077
						c0.908,0.042,1.803-0.054,2.667-0.276c0.511-0.132,1.012-0.318,1.481-0.536c0.709-0.328,1.116-0.889,1.42-1.503
						c0.354-0.716,0.569-1.465,0.725-2.225c0.102-0.487,0.213-0.972,0.309-1.459c0.078-0.405,0.325-0.681,0.799-0.798
						c0.194-0.047,0.233-0.177,0.232-0.321C54.628,30.052,54.616,29.715,54.606,29.377z M23.401,30.097
						c-0.285,0-0.524-0.097-0.588-0.225h1.175C23.924,30.001,23.686,30.097,23.401,30.097z M22.813,29.736
						c0.063-0.128,0.303-0.225,0.588-0.225s0.522,0.097,0.587,0.225H22.813z M35.839,33.089c-0.188,0.603-0.453,1.181-0.842,1.711
						c-0.968,1.333-2.688,2.093-4.498,2.239c-0.621,0.049-1.287,0.06-1.907-0.001c-0.435-0.044-0.863-0.107-1.262-0.266
						c-0.163-0.064-0.332-0.114-0.496-0.176c-0.14-0.052-0.272-0.125-0.408-0.185c-0.809-0.346-1.28-0.92-1.505-1.642
						c-0.392-1.262-0.528-2.544-0.342-3.844c0.037-0.257,0.138-0.513,0.234-0.763c0.168-0.436,0.588-0.652,1.055-0.823
						c0.704-0.256,1.447-0.386,2.206-0.469c1.15-0.123,2.305-0.153,3.461-0.057c1.11,0.093,2.195,0.275,3.217,0.679
						c0.21,0.082,0.406,0.188,0.587,0.312c0.077,0.053,0.16,0.104,0.228,0.167c0.084,0.079,0.135,0.177,0.202,0.264
						c0.065,0.084,0.139,0.163,0.197,0.252c0.126,0.185,0.144,0.396,0.198,0.598C36.208,31.766,36.045,32.429,35.839,33.089z
						 M52.05,34.77c-0.227,0.722-0.698,1.296-1.506,1.642c-0.137,0.06-0.268,0.133-0.407,0.185
						c-0.166,0.062-0.334,0.111-0.497,0.176c-0.397,0.158-0.828,0.222-1.262,0.266c-0.621,0.061-1.286,0.05-1.907,0.001
						c-1.811-0.146-3.53-0.906-4.499-2.239c-0.389-0.53-0.653-1.108-0.842-1.711c-0.204-0.659-0.369-1.322-0.325-2.003
						c0.056-0.202,0.072-0.413,0.198-0.598c0.061-0.089,0.132-0.168,0.197-0.252c0.067-0.087,0.118-0.185,0.202-0.264
						c0.068-0.063,0.15-0.114,0.229-0.167c0.18-0.123,0.377-0.229,0.587-0.312c1.021-0.403,2.106-0.586,3.218-0.679
						c1.155-0.097,2.31-0.066,3.46,0.057c0.758,0.083,1.502,0.213,2.207,0.469c0.465,0.171,0.886,0.388,1.055,0.823
						c0.097,0.25,0.195,0.506,0.232,0.763C52.577,32.226,52.441,33.509,52.05,34.77z M53.569,30.097
						c-0.286,0-0.524-0.097-0.588-0.225h1.174C54.093,30.001,53.854,30.097,53.569,30.097z M52.981,29.736
						c0.063-0.128,0.302-0.225,0.588-0.225c0.285,0,0.523,0.097,0.586,0.225H52.981z"/>
					<g>
						<g>
							
								<path fill="#E55353" stroke="#E55353" stroke-width="0.457" stroke-linecap="round" stroke-linejoin="round" stroke-miterlimit="10" d="
								M33.97,43.697c0,0,4.384,5.524,9.028,0C42.999,43.697,38.694,46.143,33.97,43.697z"/>
							
								<path fill="#E55353" stroke="#E55353" stroke-width="0.457" stroke-linecap="round" stroke-linejoin="round" stroke-miterlimit="10" d="
								M42.999,43.697c0,0-1.731,0.485-3.038-0.069c-0.684-0.288-1.402-0.131-1.477,0.049c-0.074-0.18-0.705-0.337-1.388-0.049
								c-1.308,0.555-3.126,0.069-3.126,0.069c1.941,1.5,4.134,1.166,4.525,1.131C38.887,44.863,41.056,45.197,42.999,43.697z"/>
						</g>
						
							<path fill="none" stroke="#D13030" stroke-width="0.2806" stroke-linecap="round" stroke-linejoin="round" stroke-miterlimit="10" d="
							M33.97,43.697c0,0,4.384,2.492,9.028,0"/>
					</g>
				</g>
			</g>
		</g>
	</g>
</g>
</svg>
